<svg width="116" height="120" viewBox="0 0 116 120" fill="none" xmlns="http://www.w3.org/2000/svg">
<path d="M21.1177 8.20389L50.8295 8.16561C51.4907 7.76165 53.1852 6.39755 53.6722 6.00295L26.7522 3.31133L21.1177 8.20389ZM32.4269 0.761719L57.8239 3.30027C57.9255 3.18631 58.0434 3.07831 58.1976 2.98561C60.3563 1.69124 63.0802 1.06532 65.6862 0.761719H32.4269ZM28.2639 27.2256C28.4488 27.1498 31.0178 25.9364 31.78 25.352H9.52441L28.2639 27.2256ZM42.4862 13.7827C43.0564 12.9468 44.3658 11.2808 44.3947 11.2399L21.662 12.4527L42.4862 13.7827ZM15.6839 15.4623H41.2074C40.725 15.9769 38.3518 19.0274 37.9214 19.5402H10.9885L15.6839 15.4623Z" fill="#81DEFF"/>
<path d="M23.8517 29.0962C24.4683 28.9558 25.0833 28.8122 25.6827 28.6166C26.0163 28.5256 26.3366 28.3996 26.6598 28.2814C26.9857 28.1684 27.306 28.045 27.6183 27.9022C28.2538 27.6428 28.8633 27.3316 29.4654 27.0126C30.0645 26.686 30.6422 26.3314 31.2097 25.9614C33.4572 24.4502 35.4321 22.6286 37.2253 20.6846C39.0106 18.7303 40.6257 16.6552 42.234 14.5937C43.0401 13.5647 43.8326 12.5289 44.6844 11.5517C45.4313 10.7072 46.2194 9.87636 47.1031 9.25384C48.9397 11.3264 50.3729 13.705 51.953 16.0522C52.3756 16.6722 52.8139 17.2896 53.3054 17.8917C53.799 18.4904 54.3413 19.084 55.0561 19.5858C55.4053 19.8392 55.8217 20.057 56.2816 20.2066C56.7395 20.3682 57.2656 20.403 57.7592 20.3596C58.2616 20.3138 58.716 20.1522 59.1334 19.9659C59.3247 19.8766 59.5026 19.7763 59.6747 19.6708C62.3018 21.6922 64.5838 24.077 66.4271 26.7592C67.4131 28.1752 68.2965 29.654 69.1663 31.1798C69.2018 31.2418 69.2388 31.304 69.2743 31.366C69.169 32.9334 68.9659 35.1156 68.6104 36.0316C68.0279 37.5334 65.6986 33.0304 62.9321 32.8908C63.6959 32.929 72.7709 44.8064 73.0666 46.2758C69.8702 44.245 66.5485 40.9148 63.1643 39.5328C63.5335 40.856 63.9372 42.2542 63.9017 43.6506C62.9312 42.966 62.0487 42.2176 61.2314 41.4208C58.8414 39.094 57.0017 36.358 55.1187 33.612C55.8661 34.7014 56.4304 42.13 56.5164 43.4652C55.1985 41.8714 54.5698 39.7368 53.7553 37.9228C52.0374 39.8508 49.0432 38.991 47.2518 40.4938C45.9972 41.5466 46.1842 43.2644 45.036 44.53C43.2926 46.4494 39.2856 46.6228 38.0196 47.6408C41.3702 45.3182 37.0004 43.2704 43.4095 37.9432C48.6541 35.0756 44.7205 32.344 44.4294 29.3394C45.1579 27.7006 46.0318 23.7402 43.2639 22.7834C42.0866 29.4066 36.0324 30.388 31.2154 34.2244C29.1674 35.8546 16.5538 42.9482 16.252 44.4696C16.9602 40.8994 21.8559 32.4724 23.8517 29.0962ZM73.2508 35.5544C73.4794 35.6004 73.7117 35.6326 73.953 35.6352C74.2186 35.6292 74.4818 35.5978 74.7329 35.5356C75.2347 35.409 75.6627 35.1802 76.021 34.9276C76.7386 34.414 77.2283 33.8136 77.67 33.2226C78.109 32.6272 78.4793 32.0226 78.8393 31.44C78.9762 31.2188 79.1095 31.0088 79.2437 30.8014C79.6238 31.2758 79.9939 31.753 80.3939 32.2206C81.0317 33.0184 81.7655 33.7268 82.4467 34.4828C83.1279 35.2406 83.8635 35.9422 84.5881 36.654C85.3167 37.3624 86.0322 38.0836 86.7714 38.7802C88.2735 40.1476 89.7792 41.5118 91.2995 42.8588L93.3079 44.5418C91.2625 48.1018 83.9269 40.947 81.5749 38.3532C79.6811 41.0848 84.9257 44.7722 82.0122 45.5922C79.1414 44.0222 75.6282 39.3848 73.0332 35.506C73.1057 35.523 73.1746 35.5442 73.2508 35.5544ZM100.389 48.8798C99.2046 47.8814 98.0164 46.8874 96.8771 45.8438L92.3635 41.812L87.9833 37.6668C87.2668 36.967 86.5774 36.245 85.8725 35.5348C85.1725 34.823 84.4594 34.1188 83.8128 33.3696C83.1622 32.6238 82.4585 31.9112 81.8535 31.139C81.2221 30.388 80.6052 29.6166 80.0075 28.819L79.4471 28.0706L78.6778 28.6318C78.4021 28.8334 78.2677 29.0034 78.1244 29.1702C77.9911 29.3344 77.8779 29.4908 77.7726 29.6448C77.5622 29.9518 77.377 30.2486 77.1939 30.5394C76.8291 31.1194 76.4763 31.6806 76.0917 32.1918C75.7116 32.6994 75.2945 33.1698 74.8591 33.4692C74.4111 33.7728 74.0508 33.862 73.6591 33.765L73.6164 33.754L73.5158 33.7412C73.3978 33.726 73.1865 33.6248 72.9415 33.3832C72.7011 33.1494 72.4573 32.8338 72.2259 32.5004C71.7633 31.8184 71.3289 31.064 70.8879 30.3056C70.0053 28.784 69.0946 27.2304 68.0306 25.7642C66.9739 24.293 65.7948 22.8888 64.4922 21.592C63.1943 20.29 61.7457 19.1257 60.2254 18.0669L59.6993 17.7004L59.1969 18.0856C58.9337 18.288 58.6662 18.476 58.3906 18.6155C58.1147 18.7473 57.8381 18.8561 57.5676 18.8867C57.2974 18.9131 57.029 18.9182 56.7559 18.8281C56.4847 18.7481 56.2054 18.6231 55.9377 18.4403C54.8485 17.7165 53.9478 16.5123 53.0841 15.3523C51.3626 12.9822 49.7433 10.4377 47.5837 8.25374L47.2698 7.93652L46.9143 8.1704C45.6924 8.97746 44.8256 10.0099 43.9768 11.0279C43.1429 12.0577 42.3582 13.1063 41.5778 14.1541C40.0225 16.2512 38.4572 18.3323 36.7002 20.2636C35.824 21.2296 34.9056 22.16 33.9312 23.0352C33.4499 23.4782 32.9388 23.8906 32.4213 24.2938C31.905 24.6994 31.3651 25.0744 30.8205 25.4436C30.2672 25.8008 29.7042 26.1426 29.1222 26.4548C28.5376 26.7608 27.9467 27.0594 27.3324 27.3068C26.7271 27.574 26.0953 27.7866 25.46 27.9762C24.8254 28.1734 24.1742 28.3104 23.5237 28.4482L23.3606 28.483L23.2708 28.6224C22.2786 30.1542 21.1972 31.6322 20.0659 33.0736C19.5191 33.806 18.902 34.4948 18.3251 35.2048C17.7582 35.9226 17.164 36.6226 16.5673 37.319L14.7741 39.406C14.1682 40.0958 13.5825 40.799 12.9543 41.4718L11.0906 43.5042C10.4503 44.1668 9.82707 44.8428 9.20909 45.5224L6.74805 48.8798H100.389Z" fill="#5D5D5D"/>
<path d="M8.52539 63.2217L11.2664 66.0417L37.5021 70.6501H14.0333C15.2402 71.6945 16.4899 72.7753 17.7222 73.8393L83.9241 70.3091L36.8056 67.2985H89.9016L94.5975 63.2217H8.52539ZM78.8336 79.4505L84.4682 74.5579H29.897L78.8336 79.4505ZM73.1591 82.0001H34.7081L38.6782 78.5533L73.1591 82.0001Z" fill="#81DEFF"/>
<path d="M88.4489 12.2764L88.2058 11.8155C87.4964 10.4743 86.7417 9.1553 85.9509 7.8584H53.7891L56.4496 10.5951L81.9127 15.0675H59.1344C60.3064 16.0813 61.5192 17.1298 62.7147 18.1631L90.5133 16.6808C89.8912 15.1875 89.1982 13.7196 88.4489 12.2764Z" fill="#FF9831"/>
<path d="M6.67347 60.5718C6.68419 60.5012 6.70116 60.4374 6.72527 60.3804C6.74903 60.3226 6.79502 60.2418 6.86451 60.1364C6.90632 60.07 6.94496 60.008 6.9796 59.951C7.01363 59.894 7.04945 59.8302 7.08664 59.7622C7.12346 59.6932 7.16602 59.6124 7.2139 59.5206C7.26171 59.428 7.31975 59.3132 7.38851 59.177L10.6536 51.0332L14.1649 56.6828L17.5735 51.0332L21.6493 60.8166H17.3829L15.4128 55.7626L12.3621 61.0556L9.15239 56.2924L8.0398 59.1838C7.94982 59.3506 7.8786 59.4976 7.82545 59.6226C7.77229 59.7494 7.72766 59.86 7.69039 59.9568C7.6532 60.0538 7.62172 60.1422 7.59515 60.2214C7.56856 60.3014 7.53908 60.3762 7.50797 60.4468C7.44422 60.6278 7.36765 60.753 7.27731 60.8234C7.18733 60.894 7.08138 60.9246 6.95947 60.9162C6.8588 60.9076 6.78197 60.8702 6.72918 60.804C6.67602 60.7376 6.6576 60.661 6.67347 60.5718Z" fill="#5D5D5D"/>
<path d="M26.8061 60.4476C26.8486 60.4518 26.8893 60.4544 26.9294 60.4544C26.9692 60.4544 27.0074 60.4544 27.0445 60.4544C27.553 60.4544 28.0402 60.3838 28.5065 60.2426C28.9723 60.1014 29.3831 59.8948 29.7377 59.6234C30.0928 59.353 30.3748 59.0206 30.5834 58.6276C30.7926 58.2356 30.8982 57.7882 30.8982 57.2848C30.8982 56.8094 30.8024 56.3774 30.6123 55.9888C30.4205 55.601 30.1551 55.2676 29.8139 54.9894C29.4716 54.7122 29.0649 54.497 28.5936 54.3448C28.1224 54.1926 27.6033 54.117 27.0365 54.117C26.994 54.117 26.9546 54.117 26.9173 54.117C26.88 54.117 26.8434 54.1186 26.8061 54.1228V60.4476ZM22.4922 57.2124C22.4922 56.7056 22.6074 56.2344 22.8378 55.8C23.0679 55.3654 23.3861 54.9878 23.7915 54.6654C24.1965 54.344 24.6783 54.0914 25.2367 53.9078C25.796 53.7258 26.4035 53.6338 27.0606 53.6338C27.7489 53.6338 28.37 53.7292 28.9239 53.9212C29.477 54.1134 29.9486 54.3728 30.3375 54.702C30.7269 55.0312 31.0251 55.4156 31.2311 55.856C31.4374 56.2974 31.5412 56.7678 31.5412 57.266C31.5412 57.772 31.4338 58.2492 31.2196 58.694C31.0055 59.1404 30.7003 59.529 30.3057 59.8616C29.9113 60.195 29.437 60.4586 28.8839 60.6526C28.3305 60.8464 27.7118 60.9434 27.0285 60.9434C26.3876 60.9434 25.7919 60.854 25.241 60.6754C24.6906 60.4968 24.2106 60.2434 23.8031 59.9152C23.3955 59.586 23.0748 59.1924 22.8418 58.734C22.6088 58.2756 22.4922 57.7686 22.4922 57.2124Z" fill="#5D5D5D"/>
<path d="M33.5664 53.7529H36.9661V60.2289C37.0193 60.2511 37.086 60.2621 37.1654 60.2621C37.2443 60.2621 37.3316 60.2621 37.4274 60.2621C37.5543 60.2621 37.7015 60.2323 37.868 60.1727C38.0351 60.1133 38.2098 60.0307 38.3922 59.9253C38.5753 59.8189 38.7555 59.6931 38.9327 59.5477C39.1098 59.4015 39.2752 59.2433 39.4294 59.0715V53.7529H42.8455V60.8173H39.4294V59.7985C38.9786 60.1957 38.488 60.4857 37.9553 60.6695C37.4231 60.8515 36.8899 60.9433 36.355 60.9433C35.4065 60.9433 34.7048 60.7537 34.2492 60.3743C33.7941 59.9959 33.5664 59.4287 33.5664 58.6743V53.7529Z" fill="#5D5D5D"/>
<path d="M45.4414 53.7528H48.8566V54.8838C49.3065 54.4698 49.7962 54.1568 50.3259 53.9476C50.8556 53.7384 51.3908 53.6338 51.9315 53.6338C53.8009 53.6338 54.7362 54.388 54.7362 55.8958V60.8174H51.3201V54.4732C51.2621 54.4426 51.1923 54.417 51.1134 54.3982C51.0344 54.3778 50.9491 54.3676 50.8584 54.3676C50.7269 54.3676 50.5782 54.3982 50.4139 54.457C50.2497 54.5164 50.0775 54.6006 49.8979 54.7086C49.7173 54.8166 49.5387 54.9468 49.3618 55.099C49.1839 55.2512 49.0163 55.4196 48.8566 55.605V60.8174H45.4414V53.7528Z" fill="#5D5D5D"/>
<path d="M57.4813 54.2351C57.3642 54.2351 57.2652 54.2367 57.1838 54.2385C57.1012 54.2409 57.0314 54.2443 56.9732 54.2487C56.8934 54.2537 56.8253 54.2579 56.7664 54.2613C56.7084 54.2665 56.6413 54.2681 56.5679 54.2681C56.4462 54.2681 56.3438 54.2453 56.2613 54.1993C56.1805 54.1533 56.1387 54.0879 56.1387 54.0045C56.1387 53.9109 56.1805 53.8413 56.2613 53.7961C56.3438 53.7495 56.4562 53.7265 56.6004 53.7265C56.6413 53.7265 56.6866 53.7273 56.7346 53.7289C56.7828 53.7315 56.8481 53.7349 56.9334 53.7393C56.9914 53.7435 57.0548 53.7469 57.1238 53.7495C57.1927 53.7519 57.2725 53.7529 57.3624 53.7529H57.4813V52.7271L60.8899 51.4575V53.7529H61.9548C62.0337 53.7529 62.109 53.7519 62.1807 53.7495C62.2523 53.7469 62.3194 53.7435 62.3829 53.7393C62.4627 53.7349 62.5264 53.7315 62.5735 53.7289C62.6215 53.7273 62.667 53.7265 62.7095 53.7265C62.8464 53.7265 62.959 53.7495 63.047 53.7961C63.1339 53.8413 63.1776 53.9109 63.1776 54.0045C63.1776 54.0879 63.1339 54.1533 63.047 54.1993C62.959 54.2453 62.8601 54.2681 62.7486 54.2681C62.6752 54.2681 62.6069 54.2665 62.5462 54.2613C62.4855 54.2579 62.4184 54.2537 62.344 54.2487C62.2742 54.2443 62.1952 54.2409 62.1054 54.2385C62.0146 54.2367 61.9014 54.2351 61.7635 54.2351H60.8899V60.4543C61.212 60.4501 61.4958 60.4135 61.7399 60.3445C61.983 60.2765 62.2171 60.1651 62.4393 60.0103C62.5335 59.9491 62.6197 59.8709 62.6968 59.7757C62.7739 59.6813 62.8337 59.5851 62.8755 59.4881C62.9454 59.3257 63.0125 59.2161 63.0786 59.1607C63.1439 59.1055 63.2219 59.0783 63.3127 59.0783C63.4034 59.0783 63.4796 59.1081 63.5431 59.1675C63.6066 59.2263 63.6384 59.3027 63.6384 59.3955C63.6384 59.4661 63.612 59.5511 63.5586 59.6497C63.5058 59.7501 63.4271 59.8547 63.3209 59.9645C63.2138 60.0741 63.085 60.1847 62.9317 60.2953C62.7775 60.4057 62.598 60.5087 62.3911 60.6057C62.1534 60.7119 61.8868 60.7945 61.592 60.8539C61.2991 60.9135 60.9688 60.9433 60.6042 60.9433C60.0526 60.9433 59.582 60.8889 59.1892 60.7809C58.7973 60.6737 58.4762 60.5171 58.2251 60.3123C57.9728 60.1073 57.7868 59.8589 57.6681 59.5681C57.5484 59.2765 57.4893 58.9455 57.4893 58.5757L57.4813 54.2351Z" fill="#5D5D5D"/>
<path d="M68.006 60.4476C68.0324 60.4518 68.0613 60.4544 68.0922 60.4544C68.125 60.4544 68.1566 60.4544 68.1884 60.4544C68.5221 60.4544 68.866 60.4042 69.2206 60.3056C69.5761 60.206 69.9362 60.041 70.3019 59.8122V56.624C69.9516 56.4828 69.6116 56.3808 69.2804 56.3162C68.9504 56.2524 68.6247 56.22 68.3081 56.22C68.201 56.22 68.1004 56.2268 68.006 56.2404V60.4476ZM64.375 58.2908C64.375 57.9244 64.463 57.5866 64.6409 57.2754C64.8185 56.9642 65.0708 56.6954 65.4001 56.4684C65.7283 56.2412 66.1248 56.0644 66.5911 55.936C67.0573 55.8084 67.5789 55.7446 68.1566 55.7446C68.5057 55.7446 68.866 55.7736 69.237 55.833C69.6071 55.8926 69.9626 55.9844 70.3019 56.1078V54.2886C70.0797 54.2352 69.8411 54.1934 69.587 54.1628C69.333 54.1322 69.0864 54.117 68.8469 54.117C68.5983 54.117 68.3472 54.1296 68.0922 54.156C67.8382 54.1832 67.5971 54.2224 67.3694 54.275C67.1426 54.3286 66.9311 54.3932 66.738 54.4706C66.5449 54.5472 66.3825 54.6374 66.2499 54.7386C66.1755 54.7956 66.1011 54.839 66.0277 54.867C65.9533 54.8968 65.8871 54.9104 65.8282 54.9104C65.7176 54.9104 65.6305 54.8848 65.5662 54.8338C65.5034 54.7836 65.4718 54.7208 65.4718 54.6458C65.4718 54.5974 65.4845 54.5472 65.5116 54.497C65.537 54.446 65.5878 54.395 65.6621 54.3414C65.7365 54.2888 65.8364 54.2334 65.9642 54.1764C66.0904 54.1186 66.2581 54.0566 66.4641 53.991C66.8351 53.8762 67.2404 53.7878 67.6794 53.7266C68.1195 53.6644 68.5792 53.6338 69.0628 53.6338C69.6387 53.6338 70.1848 53.6746 70.6981 53.7564C71.2124 53.8372 71.6407 53.9486 71.9853 54.0896C72.2719 54.2096 72.5223 54.3456 72.7363 54.5004C72.9513 54.6544 73.13 54.8338 73.2724 55.0396C73.4157 55.2446 73.5238 55.4802 73.5945 55.748C73.6661 56.0142 73.7014 56.3212 73.7014 56.67V60.8174H70.3019V60.3812C69.9362 60.5844 69.5679 60.7282 69.197 60.815C68.8269 60.9008 68.4423 60.9434 68.0461 60.9434C67.5054 60.9434 67.0109 60.8856 66.5638 60.7682C66.1166 60.6516 65.7292 60.4808 65.4038 60.2554C65.078 60.0308 64.8249 59.7536 64.6454 59.4254C64.4648 59.097 64.375 58.7186 64.375 58.2908Z" fill="#5D5D5D"/>
<path d="M76.1918 53.7526H79.6078V60.8172H76.1918V53.7526ZM77.8997 52.5944C77.3274 52.5944 76.8884 52.4932 76.5809 52.2908C76.2734 52.0874 76.1201 51.8204 76.1201 51.4904C76.1201 51.3536 76.1654 51.2234 76.2543 51.1C76.3451 50.976 76.4711 50.867 76.6317 50.7726C76.7941 50.6774 76.9862 50.6018 77.2087 50.544C77.4309 50.487 77.6775 50.458 77.9479 50.458C78.2336 50.458 78.4858 50.4912 78.7062 50.5576C78.9257 50.623 79.1116 50.7098 79.2621 50.8152C79.4127 50.9214 79.5289 51.0398 79.6078 51.1724C79.6877 51.305 79.7275 51.4368 79.7275 51.5686C79.7275 51.7098 79.6804 51.8442 79.5878 51.9692C79.4953 52.096 79.3665 52.2048 79.2023 52.2976C79.0381 52.3894 78.845 52.4624 78.6228 52.5152C78.4005 52.568 78.1592 52.5944 77.8997 52.5944Z" fill="#5D5D5D"/>
<path d="M82.2021 53.7528H85.6182V54.8838C86.0681 54.4698 86.5578 54.1568 87.0876 53.9476C87.6173 53.7384 88.1525 53.6338 88.6922 53.6338C90.5626 53.6338 91.4969 54.388 91.4969 55.8958V60.8174H88.0809V54.4732C88.0229 54.4426 87.9539 54.417 87.8741 54.3982C87.7952 54.3778 87.7099 54.3676 87.62 54.3676C87.4877 54.3676 87.3389 54.3982 87.1747 54.457C87.0114 54.5164 86.8383 54.6006 86.6586 54.7086C86.4789 54.8166 86.3004 54.9468 86.1225 55.099C85.9449 55.2512 85.777 55.4196 85.6182 55.605V60.8174H82.2021V53.7528Z" fill="#5D5D5D"/>
<path d="M93.4766 59.9314C93.4766 59.865 93.5036 59.8046 93.5598 59.7502C93.6153 59.694 93.6961 59.6668 93.802 59.6668C93.8755 59.6668 93.9417 59.689 94.0008 59.7332C94.0588 59.7774 94.125 59.8276 94.1994 59.8854C94.3263 59.9772 94.4769 60.0614 94.652 60.1372C94.8272 60.212 95.0157 60.2758 95.2207 60.3284C95.424 60.3812 95.6362 60.4212 95.8557 60.4476C96.0752 60.474 96.2938 60.4876 96.5105 60.4876C96.7491 60.4876 96.955 60.4714 97.1265 60.4408C97.2989 60.4102 97.4413 60.3694 97.5518 60.3192C97.6635 60.2682 97.7451 60.2112 97.7977 60.1464C97.8511 60.0828 97.8775 60.0198 97.8775 59.9576C97.8775 59.8922 97.863 59.8284 97.8332 59.769C97.805 59.7102 97.7424 59.637 97.6471 59.5512C97.5518 59.4652 97.4167 59.3616 97.2418 59.24C97.0676 59.1184 96.8344 58.9636 96.5433 58.7738C95.9437 58.3852 95.4538 58.045 95.0728 57.7516C94.6918 57.4582 94.3898 57.1904 94.1667 56.948C93.9444 56.7056 93.7911 56.4802 93.707 56.2736C93.6217 56.0662 93.5798 55.8544 93.5798 55.6384C93.5798 55.3646 93.6606 55.1068 93.8221 54.8636C93.9836 54.6212 94.2121 54.4086 94.5087 54.225C94.8062 54.043 95.1645 53.8984 95.5855 53.7928C96.0072 53.6866 96.4762 53.6338 96.9959 53.6338C97.1547 53.6338 97.3198 53.6406 97.492 53.6534C97.6644 53.6662 97.8332 53.6848 98.0008 53.7062C98.1677 53.729 98.3247 53.7564 98.4734 53.7894C98.6222 53.8226 98.7564 53.8584 98.879 53.8984C99.1647 53.9952 99.3923 54.1 99.562 54.213C99.7306 54.3252 99.8159 54.4426 99.8159 54.5668C99.8159 54.6238 99.7942 54.6782 99.7488 54.7284C99.7035 54.7794 99.6364 54.804 99.5456 54.804C99.4613 54.804 99.3823 54.7794 99.3116 54.7284C99.24 54.6782 99.1437 54.6144 99.0214 54.5404C98.7193 54.372 98.3945 54.2538 98.0445 54.1832C97.6953 54.1126 97.3751 54.077 97.083 54.077C96.771 54.077 96.5515 54.1168 96.428 54.196C96.3029 54.275 96.2412 54.366 96.2412 54.4672C96.2412 54.52 96.2594 54.5804 96.2965 54.6492C96.3338 54.7182 96.4009 54.799 96.4996 54.8942C96.5967 54.9886 96.7328 55.1 96.9042 55.2276C97.0757 55.356 97.3007 55.5014 97.5755 55.6646C98.1216 56.004 98.5715 56.3042 98.927 56.5636C99.2807 56.8246 99.5611 57.0654 99.7642 57.2882C99.9682 57.5118 100.11 57.727 100.19 57.9336C100.268 58.1412 100.309 58.3572 100.309 58.5826C100.309 58.9262 100.219 59.2424 100.038 59.5316C99.8586 59.8208 99.6018 60.07 99.2672 60.2792C98.9343 60.4884 98.5287 60.6516 98.0527 60.7682C97.5755 60.8856 97.0403 60.9434 96.4471 60.9434C96.2458 60.9434 96.0372 60.9332 95.8202 60.9136C95.6026 60.894 95.3912 60.8642 95.1845 60.8244C94.9777 60.7844 94.7799 60.7376 94.5922 60.6822C94.4043 60.627 94.2365 60.565 94.0886 60.4944C93.6797 60.3038 93.4766 60.1168 93.4766 59.9314Z" fill="#5D5D5D"/>
<path d="M89.4426 35.157C89.4426 35.157 89.5452 34.9188 89.7367 34.4716C89.9471 34.0268 90.1775 33.366 90.4486 32.525C90.5801 32.1022 90.7225 31.6362 90.8223 31.1158C90.9474 30.603 91.0482 30.0434 91.1371 29.4446C91.2486 28.8518 91.2604 28.2012 91.3293 27.5346C91.3177 26.8542 91.4064 26.156 91.3502 25.4128C91.3348 25.0444 91.3204 24.6678 91.305 24.285C91.2577 23.9066 91.2088 23.5222 91.1599 23.131C91.1107 22.7228 91.0618 22.307 91.0111 21.8852C90.9249 21.5008 90.8369 21.1104 90.747 20.7158C90.4268 19.1365 89.7413 17.4705 89.0073 15.8411C88.1521 14.2448 87.1633 12.646 85.8816 11.2173C85.5941 10.8363 85.2484 10.4986 84.9029 10.1602C84.5526 9.82597 84.2353 9.45941 83.8662 9.14135C83.1152 8.51797 82.3939 7.85465 81.5567 7.32567C80.7776 6.72357 79.8967 6.26091 79.0461 5.76341C78.6187 5.51763 78.1508 5.34331 77.7107 5.12219C77.2653 4.91129 76.8255 4.68847 76.3537 4.54135C75.8904 4.37381 75.4287 4.20711 74.9697 4.04127C74.507 3.88309 74.0289 3.77765 73.5627 3.64243C72.6349 3.34307 71.6707 3.24271 70.7364 3.06243C70.2692 2.96463 69.7931 2.97483 69.3268 2.92551C68.8806 2.88895 68.4389 2.85323 68.0015 2.81751C67.0328 2.83281 66.0279 2.79113 65.1534 2.85407C63.4727 2.99695 61.8019 3.23423 60.3043 3.64839C58.8095 4.05659 57.4705 4.57451 56.3005 5.09413C55.7228 5.37477 55.1821 5.63755 54.6822 5.87993C54.1952 6.15547 53.749 6.40719 53.3452 6.63595C52.5225 7.08073 51.9257 7.50511 51.4913 7.76193C51.0603 8.02557 50.8301 8.16589 50.8301 8.16589C50.8301 8.16589 51.0123 7.97455 51.3544 7.61481C51.7144 7.27379 52.1761 6.69719 52.9017 6.10103C53.2572 5.79063 53.65 5.44791 54.0781 5.07371C54.5316 4.72503 55.0425 4.37125 55.5838 3.97919C56.6924 3.23677 58.013 2.44927 59.5876 1.81399C59.7819 1.72894 59.9786 1.64305 60.1763 1.55545C60.3832 1.48827 60.5909 1.42024 60.8013 1.35221C61.2248 1.21444 61.6558 1.07497 62.0939 0.932947C62.5256 0.768813 63.0055 0.696513 63.4852 0.600413C63.9688 0.508565 64.4603 0.415865 64.9575 0.320615C65.9353 0.166687 66.8579 0.125033 67.8455 0.0187279L67.9371 0.0102152L67.9835 0.00595887L68.006 0.00340507L68.1086 0H68.3035L68.6973 0.00170253L69.492 0.0178766C70.0226 0.0433897 70.5658 0.0102069 71.1028 0.0867461C72.1777 0.225367 73.2906 0.291715 74.3756 0.568107C74.9206 0.692269 75.4794 0.788359 76.0246 0.939737C76.5616 1.11578 77.1011 1.29267 77.6427 1.47041C78.1933 1.63029 78.7112 1.86842 79.2355 2.09719C79.7562 2.33361 80.2977 2.53857 80.7974 2.81751C81.7925 3.38049 82.8165 3.91371 83.729 4.60257C84.6898 5.23019 85.5252 5.99899 86.3832 6.73463C86.8076 7.10627 87.1706 7.53487 87.5595 7.93543C87.946 8.33853 88.3288 8.74165 88.6518 9.18897C88.9875 9.62439 89.3221 10.0581 89.6551 10.4901C89.9517 10.9443 90.2228 11.4103 90.5039 11.8653L90.9176 12.549C91.0427 12.7821 91.1499 13.0227 91.2659 13.2583C91.4908 13.7312 91.7149 14.2006 91.9371 14.6658C92.7027 16.5852 93.2242 18.4638 93.4194 20.3602C93.471 20.8314 93.5217 21.2958 93.5718 21.7532C93.587 22.1888 93.5806 22.6012 93.5736 23.0162C93.5645 23.4482 93.5554 23.8734 93.5472 24.2902C93.5044 24.7018 93.4628 25.1058 93.4221 25.5012C93.3593 26.2904 93.1817 27.043 93.0573 27.7514C92.8551 28.4548 92.7154 29.124 92.4841 29.733C92.2701 30.3444 92.074 30.9134 91.8174 31.416C91.5943 31.9288 91.3421 32.3786 91.1126 32.7818C90.9004 33.19 90.6563 33.5344 90.4532 33.832C90.2555 34.1348 90.0749 34.3764 89.9171 34.5676C89.6077 34.952 89.4426 35.157 89.4426 35.157Z" fill="#FF9831"/>
<g filter="url(#filter0_i)">
<path d="M11.5432 69.3002V71.1402L12.3848 71.4502V72.0002H9.72363V71.4502L10.5652 71.1402V66.0602L9.72363 65.7702V65.2002H14.2499C14.9853 65.2002 15.5426 65.3736 15.9217 65.7202C16.3008 66.0668 16.4903 66.5768 16.4903 67.2502C16.4903 67.9236 16.2894 68.4336 15.8876 68.7802C15.4933 69.1268 14.9133 69.3002 14.1476 69.3002H11.5432ZM15.4668 67.2502C15.4668 66.7836 15.3606 66.4468 15.1483 66.2402C14.9436 66.0268 14.6138 65.9202 14.1589 65.9202H11.5432V68.5802H14.0452C14.5532 68.5802 14.9171 68.4768 15.137 68.2702C15.3568 68.0636 15.4668 67.7236 15.4668 67.2502ZM27.8738 71.4502V72.0002H26.5659L24.4279 69.1802H22.4604V71.1402L23.302 71.4502V72.0002H20.6408V71.4502L21.4824 71.1402V66.0602L20.6408 65.7702V65.2002H25.1785C25.9138 65.2002 26.4711 65.3702 26.8502 65.7102C27.2294 66.0436 27.4189 66.5368 27.4189 67.1902C27.4189 67.7702 27.2596 68.2268 26.9412 68.5602C26.6303 68.8868 26.1718 69.0836 25.5651 69.1502L27.1004 71.1502L27.8738 71.4502ZM22.4604 68.4602H24.9738C25.4817 68.4602 25.8456 68.3636 26.0655 68.1702C26.2855 67.9702 26.3953 67.6436 26.3953 67.1902C26.3953 66.7436 26.2891 66.4202 26.0769 66.2202C25.8722 66.0202 25.5424 65.9202 25.0875 65.9202H22.4604V68.4602ZM34.7635 65.7702L33.9219 66.0602V71.1502L34.7635 71.4502V72.0002H32.1023V71.4502L32.9439 71.1502V66.0602L32.1023 65.7702V65.2002H34.7635V65.7702ZM47.7739 66.0602V71.1502L48.6155 71.4502V72.0002H46.0112V71.4502L46.7959 71.1502V65.8602L44.2143 71.1502H43.4523L40.8594 65.8602V71.1502L41.6441 71.4502V72.0002H39.199V71.4502L40.0406 71.1502V66.0602L39.199 65.7702V65.2002H41.5986L43.93 70.0302L46.2614 65.2002H48.6155V65.7702L47.7739 66.0602ZM55.7204 65.7702L54.8788 66.0602V71.1502L55.7204 71.4502V72.0002H53.0592V71.4502L53.9008 71.1502V66.0602L53.0592 65.7702V65.2002H55.7204V65.7702ZM66.7661 67.1202H66.1406L65.8108 65.9202H63.7523V71.1502L64.7076 71.4502V72.0002H61.819V71.4502L62.7743 71.1502V65.9202H60.7159L60.3861 67.1202H59.7606V65.2002H66.7661V67.1202ZM73.4679 65.7702L72.6263 66.0602V71.1502L73.4679 71.4502V72.0002H70.8067V71.4502L71.6483 71.1502V66.0602L70.8067 65.7702V65.2002H73.4679V65.7702ZM85.1345 65.2002V65.7702L84.3498 66.0602L81.7797 72.0002H80.5628L77.9926 66.0602L77.2079 65.7702V65.2002H79.8804V65.7702L79.0389 66.0602L81.2565 71.3002L83.4855 66.0602L82.644 65.7702V65.2002H85.1345ZM95.4181 66.9702H94.7471L94.4514 65.9202H90.5847V68.2202H92.8479L93.0185 67.4502H93.644V69.7102H93.0185L92.8479 68.9402H90.5847V71.2802H94.4514L94.7471 70.1302H95.4181V72.0002H88.7651V71.4502L89.6067 71.1502V66.0602L88.7651 65.7702V65.2002H95.4181V66.9702Z" fill="#5D5D5D"/>
</g>
<defs>
<filter id="filter0_i" x="9.72363" y="65.2002" width="85.6944" height="6.8" filterUnits="userSpaceOnUse" color-interpolation-filters="sRGB">
<feFlood flood-opacity="0" result="BackgroundImageFix"/>
<feBlend mode="normal" in="SourceGraphic" in2="BackgroundImageFix" result="shape"/>
<feColorMatrix in="SourceAlpha" type="matrix" values="0 0 0 0 0 0 0 0 0 0 0 0 0 0 0 0 0 0 127 0" result="hardAlpha"/>
<feOffset dy="20"/>
<feGaussianBlur stdDeviation="2"/>
<feComposite in2="hardAlpha" operator="arithmetic" k2="-1" k3="1"/>
<feColorMatrix type="matrix" values="0 0 0 0 0 0 0 0 0 0 0 0 0 0 0 0 0 0 0.25 0"/>
<feBlend mode="normal" in2="shape" result="effect1_innerShadow"/>
</filter>
</defs>
</svg>
