<svg width="327" height="225" viewBox="0 0 327 225" fill="none" xmlns="http://www.w3.org/2000/svg">
<g clip-path="url(#clip0)">
<path d="M323.91 85.165H323.822L273.151 106.721L203.824 136.214C203.553 136.327 203.262 136.386 202.968 136.388C202.674 136.389 202.383 136.333 202.111 136.222L130.585 106.659L78.6702 85.2002L78.5909 85.165H78.5025C77.6834 85.1659 76.898 85.4905 76.3188 86.0676C75.7396 86.6447 75.4138 87.4271 75.4128 88.2432V221.922C75.4138 222.738 75.7396 223.52 76.3188 224.097C76.898 224.674 77.6834 224.999 78.5025 225H323.91C324.729 224.999 325.515 224.674 326.094 224.097C326.673 223.52 326.999 222.738 327 221.922V88.2432C326.999 87.4271 326.673 86.6447 326.094 86.0676C325.515 85.4905 324.729 85.1659 323.91 85.165V85.165Z" fill="white"/>
<path d="M324.793 86.0445C324.703 86.0446 324.615 86.0171 324.541 85.9657L202.473 1.27174C202.101 1.0152 201.66 0.878104 201.208 0.878872C200.756 0.87964 200.315 1.01824 199.945 1.27604L78.756 85.9649C78.7085 85.9981 78.655 86.0216 78.5984 86.0341C78.5418 86.0467 78.4833 86.048 78.4262 86.038C78.3691 86.028 78.3145 86.0069 78.2656 85.9759C78.2167 85.945 78.1744 85.9047 78.1411 85.8574C78.1078 85.8101 78.0842 85.7567 78.0716 85.7003C78.059 85.644 78.0577 85.5857 78.0677 85.5288C78.0777 85.4719 78.0989 85.4175 78.13 85.3688C78.1611 85.3201 78.2015 85.2779 78.249 85.2447L199.438 0.55589C199.956 0.195023 200.574 0.00104024 201.207 4.172e-06C201.839 -0.0010319 202.457 0.190927 202.977 0.550092L325.045 85.2439C325.122 85.2974 325.18 85.3741 325.211 85.4627C325.241 85.5513 325.242 85.6473 325.214 85.7366C325.186 85.8259 325.13 85.904 325.054 85.9593C324.978 86.0147 324.887 86.0446 324.793 86.0445L324.793 86.0445Z" fill="#3F3D56"/>
<path d="M85.6814 89.0468L201.328 3.6582L317.853 95.1225L207.287 160.423L147.259 146.791L85.6814 89.0468Z" fill="#E6E6E6"/>
<path d="M152.326 200.756H95.1934C94.8426 200.756 94.4951 200.688 94.1709 200.555C93.8466 200.421 93.552 200.225 93.3038 199.978C93.0555 199.731 92.8586 199.438 92.7243 199.115C92.5899 198.792 92.5208 198.446 92.5208 198.097C92.5208 197.747 92.5899 197.401 92.7243 197.078C92.8586 196.755 93.0555 196.462 93.3038 196.215C93.552 195.968 93.8466 195.772 94.1709 195.639C94.4951 195.505 94.8426 195.437 95.1934 195.438H152.326C152.677 195.437 153.024 195.505 153.348 195.639C153.673 195.772 153.967 195.968 154.215 196.215C154.464 196.462 154.661 196.755 154.795 197.078C154.929 197.401 154.998 197.747 154.998 198.097C154.998 198.446 154.929 198.792 154.795 199.115C154.661 199.438 154.464 199.731 154.215 199.978C153.967 200.225 153.673 200.421 153.348 200.555C153.024 200.688 152.677 200.756 152.326 200.756V200.756Z" fill="#FFC107"/>
<path d="M115.691 189.323H95.1934C94.8426 189.323 94.4951 189.255 94.1709 189.121C93.8466 188.988 93.552 188.792 93.3038 188.545C93.0555 188.298 92.8586 188.005 92.7243 187.682C92.5899 187.359 92.5208 187.013 92.5208 186.664C92.5208 186.314 92.5899 185.968 92.7243 185.645C92.8586 185.322 93.0555 185.029 93.3038 184.782C93.552 184.535 93.8466 184.339 94.1709 184.206C94.4951 184.072 94.8426 184.004 95.1934 184.004H115.691C116.042 184.004 116.39 184.072 116.714 184.206C117.038 184.339 117.333 184.535 117.581 184.782C117.829 185.029 118.026 185.322 118.16 185.645C118.295 185.968 118.364 186.314 118.364 186.664C118.364 187.013 118.295 187.359 118.16 187.682C118.026 188.005 117.829 188.298 117.581 188.545C117.333 188.792 117.038 188.988 116.714 189.121C116.39 189.255 116.042 189.323 115.691 189.323Z" fill="#FFC107"/>
<path d="M202.954 136.607C202.52 136.607 202.09 136.523 201.688 136.36L130.365 106.876V14.5879C130.366 13.7718 130.692 12.9894 131.271 12.4124C131.85 11.8353 132.636 11.5107 133.455 11.5098H270.283C271.102 11.5107 271.887 11.8353 272.466 12.4124C273.046 12.9894 273.371 13.7718 273.372 14.5879V106.941L273.238 106.998L204.259 136.345C203.846 136.518 203.403 136.607 202.954 136.607V136.607Z" fill="white"/>
<path d="M202.954 136.827C202.491 136.827 202.033 136.738 201.604 136.564L130.144 107.023V14.588C130.145 13.7137 130.494 12.8754 131.115 12.2571C131.736 11.6388 132.577 11.291 133.455 11.29H270.283C271.16 11.291 272.002 11.6388 272.622 12.2571C273.243 12.8754 273.592 13.7137 273.593 14.588V107.086L204.346 136.548C203.905 136.732 203.432 136.827 202.954 136.827V136.827ZM131.027 106.436L201.941 135.75C202.602 136.018 203.343 136.013 204.001 135.738L272.71 106.505V14.588C272.71 13.9468 272.454 13.3321 271.998 12.8787C271.543 12.4253 270.926 12.1703 270.283 12.1695H133.455C132.811 12.1703 132.194 12.4253 131.739 12.8787C131.284 13.3321 131.028 13.9468 131.027 14.588V106.436Z" fill="#3F3D56"/>
<path d="M323.91 85.165H323.822L273.151 106.721L203.824 136.214C203.553 136.327 203.262 136.386 202.968 136.388C202.674 136.389 202.383 136.333 202.111 136.222L130.585 106.659L78.6702 85.2002L78.5909 85.165H78.5025C77.6834 85.1659 76.898 85.4905 76.3188 86.0676C75.7396 86.6447 75.4138 87.4271 75.4128 88.2432V221.922C75.4138 222.738 75.7396 223.52 76.3188 224.097C76.898 224.674 77.6834 224.999 78.5025 225H323.91C324.729 224.999 325.515 224.674 326.094 224.097C326.673 223.52 326.999 222.738 327 221.922V88.2432C326.999 87.4271 326.673 86.6447 326.094 86.0676C325.515 85.4905 324.729 85.1659 323.91 85.165V85.165ZM326.117 221.922C326.117 222.505 325.884 223.064 325.471 223.476C325.057 223.889 324.495 224.12 323.91 224.12H78.5025C77.9173 224.12 77.3561 223.889 76.9423 223.476C76.5284 223.064 76.2958 222.505 76.2956 221.922V88.2432C76.2964 87.6746 76.5178 87.1283 76.9134 86.7186C77.3091 86.3088 77.8484 86.0673 78.4187 86.0445L130.585 107.609L201.771 137.036C202.542 137.348 203.405 137.343 204.173 137.023L273.151 107.675L323.999 86.0445C324.568 86.069 325.106 86.3112 325.5 86.7207C325.895 87.1302 326.116 87.6755 326.117 88.2432V221.922Z" fill="#3F3D56"/>
<path d="M191.851 46.0076H143.299C142.362 46.0076 141.464 45.637 140.802 44.9773C140.14 44.3176 139.768 43.4228 139.768 42.4898C139.768 41.5568 140.14 40.662 140.802 40.0023C141.464 39.3426 142.362 38.9719 143.299 38.9719H191.851C192.787 38.9719 193.685 39.3426 194.347 40.0023C195.01 40.662 195.382 41.5568 195.382 42.4898C195.382 43.4228 195.01 44.3176 194.347 44.9773C193.685 45.637 192.787 46.0076 191.851 46.0076Z" fill="#FFC107"/>
<path d="M166.692 31.0567H143.299C142.362 31.0567 141.464 30.6861 140.802 30.0264C140.14 29.3666 139.768 28.4718 139.768 27.5389C139.768 26.6059 140.14 25.7111 140.802 25.0514C141.464 24.3916 142.362 24.021 143.299 24.021H166.692C167.628 24.021 168.526 24.3916 169.189 25.0514C169.851 25.7111 170.223 26.6059 170.223 27.5389C170.223 28.4718 169.851 29.3666 169.189 30.0264C168.526 30.6861 167.628 31.0567 166.692 31.0567Z" fill="#FFC107"/>
<path d="M238.182 81.1861H164.03C163.093 81.1861 162.195 80.8155 161.533 80.1558C160.871 79.496 160.499 78.6012 160.499 77.6682C160.499 76.7353 160.871 75.8405 161.533 75.1807C162.195 74.521 163.093 74.1504 164.03 74.1504H238.182C239.118 74.1504 240.016 74.521 240.679 75.1807C241.341 75.8405 241.713 76.7353 241.713 77.6682C241.713 78.6012 241.341 79.496 240.679 80.1558C240.016 80.8155 239.118 81.1861 238.182 81.1861Z" fill="#CCCCCC"/>
<path d="M238.182 97.4561H164.03C163.093 97.4561 162.195 97.0855 161.533 96.4258C160.871 95.7661 160.499 94.8713 160.499 93.9383C160.499 93.0053 160.871 92.1105 161.533 91.4508C162.195 90.791 163.093 90.4204 164.03 90.4204H238.182C239.118 90.4204 240.016 90.791 240.679 91.4508C241.341 92.1105 241.713 93.0053 241.713 93.9383C241.713 94.8713 241.341 95.7661 240.679 96.4258C240.016 97.0855 239.118 97.4561 238.182 97.4561Z" fill="#CCCCCC"/>
<path d="M18.0736 101.569C17.6149 101.568 17.1705 101.409 16.8157 101.119C16.4609 100.83 16.2175 100.427 16.1267 99.9787L14.5206 92.0023C13.6689 87.7714 14.539 83.3768 16.9396 79.785C19.3402 76.1933 23.0747 73.6988 27.3214 72.8502C31.5681 72.0017 35.9793 72.8686 39.5845 75.2602C43.1897 77.6519 45.6935 81.3724 46.5453 85.6032L48.1509 93.5796C48.2539 94.094 48.1479 94.6282 47.8561 95.0649C47.5643 95.5015 47.1106 95.805 46.5944 95.9088L18.465 101.53C18.3362 101.556 18.2051 101.569 18.0736 101.569Z" fill="#2F2E41"/>
<path d="M68.0116 220.332L62.9658 220.331L60.5664 200.941L68.0134 200.941L68.0116 220.332Z" fill="#A0616A"/>
<path d="M59.3613 218.895H69.0928V224.999H53.2341C53.2341 223.38 53.8797 221.828 55.0287 220.683C56.1778 219.538 57.7363 218.895 59.3613 218.895Z" fill="#2F2E41"/>
<path d="M15.4346 220.281L10.7882 218.321L16.1678 199.533L23.0251 202.427L15.4346 220.281Z" fill="#A0616A"/>
<path d="M8.03171 215.598L16.9926 219.379L14.603 225L2.62044e-05 218.838C0.313837 218.1 0.770507 217.431 1.34397 216.868C1.91744 216.306 2.59646 215.862 3.34227 215.561C4.08808 215.26 4.88608 215.108 5.69069 215.115C6.49531 215.121 7.29078 215.285 8.03171 215.598V215.598Z" fill="#2F2E41"/>
<path d="M30.9953 99.5698C36.9825 99.5698 41.8361 94.7344 41.8361 88.7695C41.8361 82.8047 36.9825 77.9692 30.9953 77.9692C25.0081 77.9692 20.1545 82.8047 20.1545 88.7695C20.1545 94.7344 25.0081 99.5698 30.9953 99.5698Z" fill="#A0616A"/>
<path d="M31.5085 137.902L31.3973 137.542C28.4433 127.976 25.3899 118.088 22.3323 108.684L22.2495 108.43L22.4374 108.24C27.1836 103.43 36.0749 101.511 43.1199 103.779C50.2103 106.059 55.0964 112.455 54.4856 118.657C54.1607 122.382 55.1654 126.103 57.3228 129.163L57.6057 129.572L57.1634 129.802C49.243 133.863 40.6993 136.582 31.8828 137.847L31.5085 137.902Z" fill="#3F3D56"/>
<path d="M18.4339 216.797C18.0474 216.796 17.6678 216.694 17.3334 216.501L11.4774 213.132C10.9971 212.859 10.6379 212.415 10.4717 211.89C10.3056 211.364 10.3447 210.795 10.5813 210.297L23.5935 179.537L33.5382 134.674L51.6616 128.108L51.8264 128.184C71.2567 137.076 69.7548 200.812 69.2563 213.499C69.2339 214.032 69.0174 214.54 68.6472 214.926C68.2771 215.313 67.7784 215.552 67.2443 215.599L61.7945 216.308C61.2405 216.357 60.6882 216.197 60.2463 215.861C59.8045 215.524 59.5051 215.035 59.407 214.489L48.2811 164.952C48.2699 164.858 48.2285 164.77 48.1631 164.701C48.0977 164.632 48.0118 164.586 47.9181 164.57C47.8283 164.553 47.7353 164.564 47.6526 164.603C47.5699 164.642 47.5018 164.706 47.4581 164.786L20.3638 215.67C20.2211 215.925 20.0284 216.15 19.7972 216.33C19.5661 216.51 19.301 216.642 19.0178 216.719C18.8275 216.77 18.6312 216.797 18.4339 216.797V216.797Z" fill="#2F2E41"/>
<path d="M24.9429 171.59C25.2851 171.093 25.5138 170.527 25.6127 169.932C25.7117 169.337 25.6786 168.728 25.5157 168.148C25.3528 167.567 25.0642 167.029 24.6701 166.572C24.2759 166.114 23.7859 165.749 23.2346 165.5L23.531 156.082L17.8302 154.507L17.5991 167.813C17.2418 168.763 17.2468 169.811 17.6132 170.758C17.9796 171.705 18.682 172.485 19.5872 172.951C20.4924 173.417 21.5376 173.535 22.5247 173.284C23.5118 173.033 24.3722 172.43 24.9429 171.59H24.9429Z" fill="#A0616A"/>
<path d="M17.6835 161.635L17.3489 161.633C16.7974 161.629 16.2676 161.419 15.8649 161.043C15.4622 160.668 15.2162 160.155 15.1759 159.607C14.6292 152.593 12.95 128.7 14.3023 115.746C14.4815 114.537 14.9024 113.377 15.5401 112.333C16.1778 111.289 17.0193 110.383 18.0147 109.67C19.0102 108.956 20.1394 108.448 21.3353 108.177C22.5313 107.906 23.7697 107.877 24.9772 108.091L25.3253 108.168L25.3227 108.523C25.1988 125.566 25.2068 142.51 25.2145 158.896C25.2158 159.396 25.0456 159.882 24.7322 160.273C24.4188 160.664 23.9809 160.937 23.4908 161.046C21.5804 161.44 19.6344 161.637 17.6835 161.635Z" fill="#FFC107"/>
<path d="M30.6611 182.075C29.2017 182.069 27.7948 181.532 26.7041 180.566C25.6134 179.601 24.9138 178.271 24.7365 176.828L25.2165 137.494L17.3692 117.719C17.039 115.121 17.5999 112.489 18.9608 110.248C20.3217 108.008 22.4027 106.292 24.8659 105.379L26.9638 104.595C27.3602 104.447 27.782 104.378 28.2051 104.393C28.6282 104.408 29.0443 104.505 29.4293 104.681C29.8144 104.856 30.1609 105.105 30.449 105.414C30.7371 105.723 30.9611 106.086 31.1082 106.482L39.1999 128.247L39.202 128.279C39.7631 136.942 42.2954 180.057 37.2463 181.343C35.1069 181.843 32.9157 182.088 30.7184 182.075L30.6611 182.075Z" fill="#FFC107"/>
<path d="M77.2784 156.739C76.7177 156.513 76.2137 156.166 75.8019 155.725C75.3901 155.283 75.0805 154.757 74.8949 154.183C74.7093 153.609 74.6522 153.002 74.7277 152.404C74.8031 151.806 75.0093 151.232 75.3317 150.722L69.8699 143.029L73.7526 138.582L81.3126 149.553C82.1369 150.15 82.713 151.027 82.9317 152.018C83.1504 153.009 82.9966 154.046 82.4993 154.932C82.002 155.817 81.1959 156.491 80.2337 156.824C79.2714 157.157 78.2199 157.127 77.2784 156.739H77.2784Z" fill="#A0616A"/>
<path d="M71.8244 146.853C71.5391 146.845 71.2601 146.768 71.0107 146.63C70.7614 146.492 70.549 146.296 70.3916 146.058L70.3629 146.015C61.3255 132.388 51.9806 118.297 42.5094 104.249L42.4075 104.098L42.5378 103.97C43.3685 103.197 44.3475 102.6 45.4158 102.214C46.4841 101.828 47.6197 101.662 48.7543 101.724C49.9224 101.745 51.0729 102.012 52.1306 102.506C53.1883 103 54.1295 103.711 54.8926 104.592C63.1692 114.625 74.9814 135.448 78.4045 141.591C78.6205 141.973 78.6845 142.421 78.5836 142.848C78.4827 143.274 78.2243 143.647 77.8599 143.892C76.1791 145.032 74.3786 145.986 72.4904 146.738C72.2785 146.821 72.0519 146.86 71.8244 146.853Z" fill="#FFC107"/>
<path d="M68.7903 173.308C63.3771 173.312 44.0095 136.159 40.182 128.711L40.1489 128.621L35.9148 105.83C35.8377 105.415 35.8436 104.989 35.9322 104.577C36.0207 104.165 36.1902 103.774 36.4308 103.427C36.6714 103.08 36.9784 102.783 37.3342 102.555C37.69 102.326 38.0877 102.17 38.5042 102.095L40.7094 101.698C43.2947 101.226 45.9642 101.638 48.2846 102.868C50.605 104.098 52.44 106.073 53.4917 108.473L59.0243 131.641L77.5239 162.955C78.1314 164.297 78.2207 165.815 77.7747 167.218C77.3286 168.621 76.3786 169.811 75.1065 170.559C73.2262 171.692 71.2178 172.599 69.1233 173.262C69.0151 173.293 68.9029 173.309 68.7902 173.308H68.7903Z" fill="#FFC107"/>
<path d="M39.415 88.8629H17.5667V86.2245C17.5699 83.3099 18.7336 80.5156 20.8022 78.4547C22.8709 76.3938 25.6756 75.2345 28.6012 75.2312H30.3667C33.2922 75.2345 36.097 76.3938 38.1657 78.4547C40.2343 80.5156 41.3979 83.3099 41.4012 86.2245V86.8841C41.4006 87.4087 41.1912 87.9117 40.8188 88.2827C40.4465 88.6537 39.9416 88.8623 39.415 88.8629V88.8629Z" fill="#2F2E41"/>
</g>
<defs>
<clipPath id="clip0">
<rect width="327" height="225" fill="white"/>
</clipPath>
</defs>
</svg>
