<svg width="1136" height="648" viewBox="0 0 1136 648" fill="none" xmlns="http://www.w3.org/2000/svg">
<g clip-path="url(#clip0)">
<path d="M248 300.522C295.496 300.522 334 262.019 334 214.522C334 167.026 295.496 128.522 248 128.522C200.504 128.522 162 167.026 162 214.522C162 262.019 200.504 300.522 248 300.522Z" fill="#FED42D"/>
<path d="M1100.4 611.792C1095.34 616.343 1090.02 620.594 1084.47 624.522C1071.29 633.793 1057.04 641.451 1042.04 647.332C979.69 645.832 888.03 638.182 772.33 634.102C763.7 631.152 754.873 627.959 745.85 624.522C733.91 619.972 721.627 614.972 709 609.522C656.56 586.862 602.72 572.132 549.39 563.332C537.93 561.442 526.5 559.822 515.1 558.472C274.28 529.672 52.2 614.292 26.48 624.522H24L39.82 593.882L309 72.5225L371.95 234.142L392.04 285.732L447.41 209.752L476 170.522L606.2 319.792L643 238.522L897.78 446.442L911.99 458.032L926.37 469.772L930.95 473.512L1067.16 584.672L1100.4 611.792Z" fill="#F2F2F2"/>
<path opacity="0.1" d="M285 177.523L311 120.523L347 203.523L316 143.523L285 177.523Z" fill="black"/>
<path opacity="0.1" d="M549.39 563.332C537.93 561.442 526.5 559.823 515.1 558.473L392.04 285.732L549.39 563.332Z" fill="black"/>
<path opacity="0.1" d="M447.411 209.752L476 187.523L606 337.523L474 209.523L447.411 209.752Z" fill="black"/>
<path opacity="0.1" d="M606.197 319.789L866 568.523L830.464 576.904L606.197 319.789Z" fill="black"/>
<path d="M1136 625.023C1136 644.393 1103.04 648.803 1042.04 647.333C979.69 645.833 888.03 638.183 772.33 634.103C728.57 632.563 681.36 631.523 631 631.523C317.3 631.523 0 671.693 0 625.023C0 614.023 14.12 603.523 39.82 593.883C116.02 565.303 294 544.373 507.22 541.003C516.92 540.843 526.69 540.726 536.53 540.653C546.95 540.563 557.44 540.519 568 540.523C652.77 540.523 733.21 543.283 805.46 548.233C805.69 548.253 805.91 548.273 806.14 548.283C811.94 548.683 817.683 549.096 823.37 549.523C829.58 549.993 835.723 550.476 841.8 550.973C843.05 551.073 844.3 551.173 845.54 551.283C846.44 551.353 847.34 551.433 848.23 551.513C849.87 551.643 851.51 551.783 853.13 551.933C853.187 551.931 853.244 551.934 853.3 551.943C856.28 552.203 859.24 552.463 862.18 552.723C862.49 552.753 862.8 552.783 863.11 552.803C948.56 560.553 1019.18 571.563 1067.16 584.673C1111.06 596.663 1136 610.403 1136 625.023Z" fill="#3F3D56"/>
<path d="M70.8867 458.182C70.8867 522.198 111.047 573.999 160.678 573.999Z" fill="#3F3D56"/>
<path d="M160.678 573.999C160.678 509.264 205.494 456.881 260.879 456.881Z" fill="#FFC107"/>
<path d="M103.42 463.985C103.42 524.794 129.029 573.999 160.678 573.999Z" fill="#FFC107"/>
<path d="M160.678 573.999C160.678 491.282 212.479 424.348 276.495 424.348Z" fill="#3F3D56"/>
<path d="M141.788 574.816C141.788 574.816 154.522 574.424 158.36 571.691C162.197 568.958 177.947 565.695 178.899 570.078C179.851 574.461 198.036 591.875 183.66 591.991C169.283 592.107 150.255 589.752 146.425 587.419C142.595 585.086 141.788 574.816 141.788 574.816Z" fill="#A8A8A8"/>
<path opacity="0.2" d="M183.916 590.466C169.54 590.582 150.512 588.226 146.681 585.893C143.764 584.116 142.602 577.741 142.213 574.799C141.944 574.811 141.788 574.816 141.788 574.816C141.788 574.816 142.595 585.086 146.425 587.419C150.255 589.752 169.283 592.107 183.66 591.991C187.809 591.958 189.243 590.481 189.164 588.294C188.588 589.616 187.005 590.441 183.916 590.466Z" fill="black"/>
<path d="M762.887 449.182C762.887 513.198 803.047 564.999 852.678 564.999L762.887 449.182Z" fill="#3F3D56"/>
<path d="M852.678 564.999C852.678 500.264 897.494 447.881 952.879 447.881L852.678 564.999Z" fill="#FFC107"/>
<path d="M795.42 454.985C795.42 515.794 821.029 564.999 852.678 564.999L795.42 454.985Z" fill="#FFC107"/>
<path d="M852.678 564.999C852.678 482.282 904.479 415.348 968.495 415.348L852.678 564.999Z" fill="#3F3D56"/>
<path d="M833.788 565.816C833.788 565.816 846.522 565.424 850.36 562.691C854.197 559.958 869.947 556.695 870.899 561.078C871.851 565.461 890.036 582.875 875.66 582.991C861.283 583.107 842.255 580.752 838.425 578.419C834.595 576.086 833.788 565.816 833.788 565.816Z" fill="#A8A8A8"/>
<path opacity="0.2" d="M875.916 581.466C861.54 581.582 842.512 579.226 838.681 576.893C835.764 575.116 834.602 568.741 834.213 565.799C833.944 565.811 833.788 565.816 833.788 565.816C833.788 565.816 834.595 576.086 838.425 578.419C842.255 580.752 861.283 583.107 875.66 582.991C879.809 582.958 881.243 581.481 881.164 579.294C880.588 580.616 879.005 581.441 875.916 581.466Z" fill="black"/>
<path d="M490 452.609C491.945 452.609 493.522 451.033 493.522 449.088C493.522 447.143 491.945 445.566 490 445.566C488.055 445.566 486.479 447.143 486.479 449.088C486.479 451.033 488.055 452.609 490 452.609Z" fill="#F2F2F2"/>
<path d="M995.395 104.367C990.538 106.16 982.012 107.627 972.141 108.811C945.303 112.032 908.521 113.175 908.521 113.175C908.521 113.175 719.496 128.854 577.815 70.5441C577.815 70.5441 557.207 59.7377 576.35 45.2005C579.291 43.025 582.419 41.1149 585.698 39.4928C585.698 39.4928 585.777 39.4123 585.934 39.2625C588.108 37.2515 590.459 35.4396 592.957 33.8487C600.296 29.1047 612.691 23.4761 627.773 26.0254L999.865 86.2118C999.865 86.2118 1013.46 97.6951 995.395 104.367Z" fill="#F2F2F2"/>
<path d="M921.25 77.092L999.15 21.821L1033.48 27.7588L999.864 86.2109C999.864 86.2109 922.145 86.8293 921.25 77.092Z" fill="#F2F2F2"/>
<path d="M725.129 43.517L880.294 0L905.307 5.226L835.216 36.756L813.306 61.264L725.129 43.517Z" fill="#F2F2F2"/>
<path d="M972.141 108.811C945.303 112.031 908.521 113.175 908.521 113.175C908.521 113.175 719.496 128.854 577.815 70.544C577.815 70.544 557.207 59.7376 576.35 45.2004L576.415 45.4661C576.415 45.4661 606.984 66.1279 753.051 83.3797L972.141 108.811Z" fill="#F2F2F2"/>
<path d="M947.198 107.616L1016.57 135.94L1034 134.005L992.504 102.821C992.504 102.821 942.315 92.1167 947.198 107.616Z" fill="#F2F2F2"/>
<path d="M601.543 48.4918C598.231 48.5497 590.648 42.996 585.934 39.2624C588.108 37.2515 590.459 35.4396 592.957 33.8486C596.757 36.7654 603.522 41.4882 607.282 41.32C612.71 41.0769 606.526 48.4056 601.543 48.4918Z" fill="#F2F2F2"/>
<path d="M916.702 205.532L872.163 207.86L746.943 123.42L723.697 107.744L712.398 100.125C733.585 82.2184 820.014 106.908 820.014 106.908C821.67 108.305 822.195 110.625 822.119 113.187C821.977 117.989 819.722 123.641 818.853 125.653C818.644 126.137 818.515 126.41 818.515 126.41L916.702 205.532Z" fill="#F2F2F2"/>
<path d="M995.395 104.367C990.538 106.16 982.012 107.627 972.141 108.811C945.303 112.032 908.521 113.175 908.521 113.175C908.521 113.175 719.496 128.854 577.815 70.5441C577.815 70.5441 557.207 59.7377 576.35 45.2005C579.291 43.025 582.419 41.1149 585.698 39.4928C585.698 39.4928 585.777 39.4123 585.934 39.2625C588.108 37.2515 590.459 35.4396 592.957 33.8487C600.296 29.1047 612.691 23.4761 627.773 26.0254L999.865 86.2118C999.865 86.2118 1013.46 97.6951 995.395 104.367Z" fill="#3F3D56"/>
<path d="M921.25 77.092L999.15 21.821L1033.48 27.7588L999.864 86.2109C999.864 86.2109 922.145 86.8293 921.25 77.092Z" fill="#3F3D56"/>
<path d="M725.129 43.517L880.294 0L905.307 5.226L835.216 36.756L813.306 61.264L725.129 43.517Z" fill="#3F3D56"/>
<path d="M972.141 108.811C945.303 112.031 908.521 113.175 908.521 113.175C908.521 113.175 719.496 128.854 577.815 70.544C577.815 70.544 557.207 59.7376 576.35 45.2004L576.415 45.4661C576.415 45.4661 606.984 66.1279 753.051 83.3797L972.141 108.811Z" fill="#FFC107"/>
<path d="M947.198 107.616L1016.57 135.94L1034 134.005L992.504 102.821C992.504 102.821 942.315 92.1167 947.198 107.616Z" fill="#3F3D56"/>
<path d="M601.543 48.4918C598.231 48.5497 590.648 42.996 585.934 39.2624C588.108 37.2515 590.459 35.4396 592.957 33.8486C596.757 36.7654 603.522 41.4882 607.282 41.32C612.71 41.0769 606.526 48.4056 601.543 48.4918Z" fill="#FFC107"/>
<path d="M916.702 205.532L872.163 207.86L746.943 123.42L723.697 107.744L712.398 100.125C733.585 82.2184 820.014 106.908 820.014 106.908C821.67 108.305 822.195 110.625 822.119 113.187C821.977 117.989 819.722 123.641 818.853 125.653C818.644 126.137 818.515 126.41 818.515 126.41L916.702 205.532Z" fill="#3F3D56"/>
<g filter="url(#filter0_d)">
<circle cx="530.5" cy="359.5" r="126.5" fill="#3F3D56"/>
<g clip-path="url(#clip1)">
<path d="M506.826 414.04L460.063 367.277C457.254 364.467 457.254 359.912 460.063 357.102L470.237 346.928C473.047 344.118 477.602 344.118 480.412 346.928L511.913 378.43L579.387 310.956C582.196 308.147 586.752 308.147 589.561 310.956L599.735 321.131C602.544 323.94 602.544 328.495 599.735 331.305L517 414.04C514.191 416.849 509.636 416.849 506.826 414.04V414.04Z" fill="#FFC107"/>
</g>
</g>
</g>
<defs>
<filter id="filter0_d" x="399" y="228" width="273" height="273" filterUnits="userSpaceOnUse" color-interpolation-filters="sRGB">
<feFlood flood-opacity="0" result="BackgroundImageFix"/>
<feColorMatrix in="SourceAlpha" type="matrix" values="0 0 0 0 0 0 0 0 0 0 0 0 0 0 0 0 0 0 127 0" result="hardAlpha"/>
<feOffset dx="5" dy="5"/>
<feGaussianBlur stdDeviation="5"/>
<feColorMatrix type="matrix" values="0 0 0 0 0 0 0 0 0 0 0 0 0 0 0 0 0 0 0.25 0"/>
<feBlend mode="normal" in2="BackgroundImageFix" result="effect1_dropShadow"/>
<feBlend mode="normal" in="SourceGraphic" in2="effect1_dropShadow" result="shape"/>
</filter>
<clipPath id="clip0">
<rect width="1136" height="647.595" fill="white"/>
</clipPath>
<clipPath id="clip1">
<rect width="143.886" height="143.886" fill="white" transform="translate(457.956 290.555)"/>
</clipPath>
</defs>
</svg>
