<svg width="187" height="202" viewBox="0 0 187 202" fill="none" xmlns="http://www.w3.org/2000/svg">
<path d="M34.0437 13.8099L81.9412 13.7454C83.0071 13.0654 85.7387 10.7692 86.5238 10.105L43.1269 5.57407L34.0437 13.8099ZM52.2749 1.28223L93.2165 5.55545C93.3804 5.36362 93.5704 5.18182 93.819 5.02577C97.299 2.84692 101.69 1.7933 105.891 1.28223H52.2749ZM45.5638 45.8298C45.8619 45.7022 50.0034 43.6596 51.2321 42.6759H15.3545L45.5638 45.8298ZM68.4911 23.201C69.4103 21.7937 71.5212 18.9893 71.5678 18.9206L34.9211 20.962L68.4911 23.201ZM25.284 26.0283H66.4297C65.652 26.8944 61.8262 32.0294 61.1325 32.8927H17.7147L25.284 26.0283Z" fill="#81DEFF"/>
<path d="M38.4502 48.9787C39.4442 48.7424 40.4357 48.5007 41.4018 48.1714C41.9397 48.0182 42.456 47.8061 42.977 47.6072C43.5025 47.4169 44.0187 47.2092 44.5222 46.9688C45.5466 46.5322 46.5293 46.0083 47.4999 45.4713C48.4657 44.9216 49.397 44.3246 50.3118 43.7018C53.9349 41.158 57.1186 38.0916 60.0094 34.8192C62.8874 31.5294 65.4911 28.0363 68.0838 24.5662C69.3833 22.834 70.6607 21.0903 72.0339 19.4454C73.238 18.0239 74.5085 16.6253 75.933 15.5774C78.8939 19.0661 81.2042 23.0702 83.7515 27.0213C84.4327 28.0649 85.1393 29.1043 85.9317 30.1178C86.7273 31.1256 87.6015 32.1249 88.7539 32.9695C89.3167 33.3961 89.9881 33.7627 90.7295 34.0146C91.4676 34.2866 92.3157 34.3452 93.1114 34.2721C93.9213 34.195 94.6539 33.923 95.3268 33.6094C95.6351 33.4591 95.9219 33.2902 96.1994 33.1126C100.434 36.5153 104.113 40.5297 107.085 45.0448C108.674 47.4284 110.098 49.9177 111.5 52.4861C111.558 52.5905 111.617 52.6952 111.675 52.7996C111.505 55.438 111.177 59.1114 110.604 60.6533C109.665 63.1814 105.91 55.6013 101.45 55.3663C102.682 55.4306 117.311 75.4242 117.788 77.8977C112.635 74.4792 107.28 68.8734 101.825 66.547C102.42 68.7744 103.071 71.128 103.014 73.4786C101.449 72.3262 100.026 71.0664 98.7089 69.7251C94.856 65.8084 91.8904 61.2028 88.8547 56.5803C90.0596 58.4142 90.9693 70.919 91.1079 73.1665C88.9834 70.4836 87.97 66.8904 86.6569 63.8368C83.8875 67.0823 79.0607 65.635 76.1728 68.1647C74.1503 69.9369 74.4517 72.8285 72.6008 74.959C69.7903 78.1899 63.3307 78.4818 61.2898 80.1955C66.6912 76.2858 59.6468 72.8386 69.9787 63.8712C78.4333 59.0441 72.0922 54.4459 71.6229 49.3881C72.7973 46.6295 74.206 39.9628 69.7441 38.3522C67.8462 49.5012 58.0863 51.1533 50.321 57.6112C47.0195 60.3554 26.6856 72.2963 26.1989 74.8573C27.3406 68.8475 35.2328 54.662 38.4502 48.9787ZM118.085 59.85C118.454 59.9275 118.828 59.9817 119.217 59.986C119.645 59.9759 120.069 59.9231 120.474 59.8184C121.283 59.6053 121.973 59.2201 122.551 58.7949C123.707 57.9304 124.497 56.9197 125.209 55.9248C125.917 54.9226 126.514 53.9048 127.094 52.9241C127.315 52.5518 127.53 52.1983 127.746 51.8491C128.359 52.6477 128.955 53.451 129.6 54.2381C130.628 55.5811 131.811 56.7736 132.909 58.0462C134.008 59.3218 135.193 60.5028 136.362 61.701C137.536 62.8935 138.69 64.1075 139.881 65.2801C142.303 67.5819 144.73 69.8783 147.181 72.1458L150.418 74.9788C147.121 80.9715 135.296 68.9276 131.504 64.5613C128.451 69.1595 136.906 75.3667 132.209 76.747C127.581 74.1042 121.917 66.2979 117.734 59.7686C117.851 59.7972 117.962 59.8329 118.085 59.85ZM161.834 82.2811C159.924 80.6005 158.009 78.9272 156.172 77.1705L148.896 70.3837L141.835 63.4059C140.68 62.2279 139.568 61.0125 138.432 59.817C137.303 58.6188 136.154 57.4334 135.112 56.1723C134.063 54.9169 132.928 53.7173 131.953 52.4174C130.935 51.1533 129.941 49.8547 128.977 48.5121L128.074 47.2523L126.834 48.197C126.389 48.5363 126.173 48.8225 125.942 49.1033C125.727 49.3797 125.544 49.643 125.374 49.9022C125.035 50.419 124.737 50.9186 124.442 51.4081C123.853 52.3845 123.285 53.3291 122.665 54.1897C122.052 55.0441 121.38 55.836 120.678 56.3399C119.955 56.851 119.375 57.0012 118.743 56.8379L118.674 56.8194L118.512 56.7978C118.322 56.7722 117.981 56.6019 117.586 56.1952C117.199 55.8016 116.806 55.2704 116.433 54.7091C115.687 53.5611 114.987 52.2912 114.276 51.0146C112.853 48.4532 111.385 45.838 109.67 43.3699C107.966 40.8933 106.065 38.5296 103.965 36.3467C101.873 34.155 99.5379 32.195 97.0871 30.4127L96.239 29.7957L95.4291 30.4442C95.0048 30.7849 94.5736 31.1013 94.1292 31.3361C93.6845 31.558 93.2386 31.7412 92.8026 31.7927C92.367 31.8371 91.9344 31.8457 91.494 31.694C91.0569 31.5594 90.6067 31.3489 90.1751 31.0412C88.4191 29.8229 86.9671 27.7958 85.5749 25.8431C82.7996 21.8534 80.1893 17.5701 76.7078 13.8939L76.2018 13.3599L75.6287 13.7536C73.659 15.1121 72.2616 16.8501 70.8932 18.5636C69.549 20.2973 68.284 22.0624 67.026 23.8261C64.5187 27.3563 61.9953 30.8594 59.1628 34.1105C57.7504 35.7366 56.2698 37.3028 54.699 38.776C53.9231 39.5218 53.0992 40.216 52.2651 40.8947C51.4327 41.5774 50.5623 42.2087 49.6845 42.8302C48.7924 43.4315 47.8849 44.0068 46.9466 44.5324C46.0042 45.0475 45.0516 45.5501 44.0613 45.9666C43.0856 46.4164 42.067 46.7742 41.0429 47.0934C40.0199 47.4253 38.9701 47.656 37.9214 47.8879L37.6585 47.9465L37.5137 48.1812C35.9142 50.7597 34.1709 53.2477 32.3472 55.674C31.4658 56.9069 30.4709 58.0664 29.5409 59.2615C28.627 60.4698 27.6692 61.6482 26.7072 62.8204L23.8165 66.3336C22.8397 67.4947 21.8955 68.6784 20.8828 69.811L17.8784 73.2322C16.8462 74.3476 15.8415 75.4855 14.8453 76.6295L10.8779 82.2811H161.834Z" fill="#5D5D5D"/>
<path d="M13.7432 106.423L18.1619 111.17L60.4556 118.928H22.6224C24.5679 120.686 26.5824 122.505 28.569 124.296L135.291 118.354L59.3329 113.286H144.927L152.497 106.423H13.7432ZM127.085 133.742L136.168 125.506H48.1957L127.085 133.742ZM117.937 138.033H55.9515L62.3516 132.231L117.937 138.033Z" fill="#81DEFF"/>
<path d="M142.585 20.6652L142.193 19.8894C141.049 17.6318 139.833 15.4114 138.558 13.2283H86.7109L90.9998 17.8351L132.048 25.3637H95.328C97.2174 27.0701 99.1725 28.8352 101.1 30.5746L145.913 28.0793C144.91 25.5655 143.793 23.0946 142.585 20.6652Z" fill="#FF9831"/>
<path d="M10.7579 101.962C10.7752 101.844 10.8025 101.736 10.8414 101.64C10.8797 101.543 10.9538 101.407 11.0659 101.229C11.1333 101.118 11.1956 101.013 11.2514 100.917C11.3062 100.821 11.364 100.714 11.4239 100.6C11.4833 100.483 11.5519 100.347 11.6291 100.193C11.7062 100.037 11.7997 99.8438 11.9106 99.6145L17.1741 85.9058L22.8346 95.4159L28.3294 85.9058L34.8999 102.374H28.0222L24.8464 93.8669L19.9284 102.777L14.7541 94.7588L12.9605 99.6259C12.8154 99.9067 12.7006 100.154 12.615 100.365C12.5293 100.578 12.4573 100.764 12.3972 100.927C12.3373 101.09 12.2865 101.239 12.2437 101.373C12.2008 101.507 12.1533 101.633 12.1032 101.752C12.0004 102.057 11.877 102.267 11.7313 102.386C11.5863 102.505 11.4155 102.556 11.2189 102.542C11.0567 102.528 10.9328 102.465 10.8477 102.353C10.762 102.242 10.7323 102.113 10.7579 101.962Z" fill="#5D5D5D"/>
<path d="M43.2131 101.753C43.2817 101.76 43.3473 101.765 43.4118 101.765C43.476 101.765 43.5376 101.765 43.5974 101.765C44.4172 101.765 45.2026 101.646 45.9543 101.408C46.7052 101.171 47.3674 100.823 47.9391 100.366C48.5114 99.9108 48.9661 99.3512 49.3023 98.6897C49.6397 98.0298 49.8098 97.2767 49.8098 96.4293C49.8098 95.629 49.6554 94.9018 49.3489 94.2477C49.0398 93.5949 48.6119 93.0337 48.0619 92.5654C47.5101 92.0988 46.8545 91.7365 46.0947 91.4803C45.335 91.2241 44.4983 91.0968 43.5845 91.0968C43.516 91.0968 43.4525 91.0968 43.3924 91.0968C43.3323 91.0968 43.2732 91.0995 43.2131 91.1066V101.753ZM36.2588 96.3074C36.2588 95.4543 36.4445 94.6611 36.8159 93.9299C37.1869 93.1983 37.6999 92.5627 38.3533 92.02C39.0063 91.479 39.7829 91.0537 40.6831 90.7447C41.5847 90.4383 42.5641 90.2834 43.6234 90.2834C44.7329 90.2834 45.7343 90.444 46.6271 90.7672C47.5189 91.0908 48.279 91.5274 48.906 92.0816C49.5337 92.6357 50.0144 93.2828 50.3466 94.0241C50.6792 94.7672 50.8464 95.559 50.8464 96.3976C50.8464 97.2494 50.6733 98.0527 50.3279 98.8015C49.9829 99.5529 49.4908 100.207 48.8546 100.767C48.2188 101.328 47.4543 101.772 46.5626 102.098C45.6705 102.425 44.6732 102.588 43.5717 102.588C42.5384 102.588 41.5781 102.437 40.6901 102.137C39.8027 101.836 39.0291 101.41 38.372 100.857C37.7149 100.303 37.1979 99.6404 36.8225 98.8688C36.4467 98.0971 36.2588 97.2437 36.2588 96.3074Z" fill="#5D5D5D"/>
<path d="M54.1113 90.4841H59.5919V101.385C59.6777 101.423 59.7851 101.441 59.9131 101.441C60.0403 101.441 60.1811 101.441 60.3355 101.441C60.5401 101.441 60.7773 101.391 61.0457 101.291C61.3152 101.191 61.5968 101.052 61.8909 100.874C62.1861 100.695 62.4765 100.483 62.7621 100.239C63.0477 99.9926 63.3143 99.7263 63.5629 99.4371V90.4841H69.0699V102.376H63.5629V100.661C62.8362 101.329 62.0453 101.818 61.1865 102.127C60.3285 102.433 59.4691 102.588 58.6067 102.588C57.0777 102.588 55.9465 102.269 55.2121 101.63C54.4784 100.993 54.1113 100.038 54.1113 98.7685V90.4841Z" fill="#5D5D5D"/>
<path d="M73.2549 90.4838H78.7604V92.3876C79.4856 91.6907 80.2751 91.1638 81.129 90.8117C81.983 90.4595 82.8458 90.2834 83.7173 90.2834C86.731 90.2834 88.2387 91.553 88.2387 94.0912V102.376H82.7317V91.6964C82.6382 91.6449 82.5257 91.6018 82.3984 91.5702C82.2712 91.5358 82.1337 91.5187 81.9874 91.5187C81.7755 91.5187 81.5357 91.5702 81.2709 91.6692C81.0062 91.7692 80.7286 91.9109 80.439 92.0927C80.1478 92.2745 79.86 92.4937 79.5747 92.7499C79.288 93.0061 79.0178 93.2895 78.7604 93.6016V102.376H73.2549V90.4838Z" fill="#5D5D5D"/>
<path d="M92.6635 91.2957C92.4746 91.2957 92.3151 91.2984 92.1839 91.3015C92.0508 91.3055 91.9382 91.3112 91.8443 91.3186C91.7156 91.3271 91.606 91.3341 91.511 91.3398C91.4175 91.3486 91.3094 91.3513 91.1909 91.3513C90.9948 91.3513 90.8298 91.3129 90.6967 91.2355C90.5665 91.1581 90.499 91.048 90.499 90.9076C90.499 90.75 90.5665 90.6328 90.6967 90.5568C90.8298 90.4783 91.0109 90.4396 91.2434 90.4396C91.3094 90.4396 91.3823 90.4409 91.4597 90.4436C91.5374 90.448 91.6427 90.4537 91.7802 90.4611C91.8737 90.4682 91.976 90.4739 92.0871 90.4783C92.1982 90.4824 92.3269 90.484 92.4717 90.484H92.6635V88.7573L98.1583 86.6201V90.484H99.875C100.002 90.484 100.124 90.4824 100.239 90.4783C100.355 90.4739 100.463 90.4682 100.565 90.4611C100.694 90.4537 100.796 90.448 100.872 90.4436C100.95 90.4409 101.023 90.4396 101.092 90.4396C101.312 90.4396 101.494 90.4783 101.636 90.5568C101.776 90.6328 101.846 90.75 101.846 90.9076C101.846 91.048 101.776 91.1581 101.636 91.2355C101.494 91.3129 101.334 91.3513 101.155 91.3513C101.036 91.3513 100.926 91.3486 100.828 91.3398C100.73 91.3341 100.622 91.3271 100.502 91.3186C100.39 91.3112 100.263 91.3055 100.118 91.3015C99.9715 91.2984 99.7889 91.2957 99.5667 91.2957H98.1583V101.765C98.6775 101.758 99.1351 101.696 99.5285 101.58C99.9205 101.465 100.298 101.278 100.656 101.017C100.808 100.914 100.947 100.783 101.071 100.622C101.195 100.464 101.292 100.302 101.359 100.138C101.472 99.8649 101.58 99.6804 101.687 99.5872C101.792 99.4943 101.918 99.4485 102.064 99.4485C102.21 99.4485 102.333 99.4986 102.435 99.5986C102.538 99.6976 102.589 99.8262 102.589 99.9824C102.589 100.101 102.547 100.244 102.46 100.41C102.375 100.579 102.248 100.755 102.077 100.94C101.905 101.125 101.697 101.311 101.45 101.497C101.201 101.683 100.912 101.856 100.578 102.02C100.195 102.198 99.7654 102.337 99.2902 102.437C98.8179 102.538 98.2855 102.588 97.6978 102.588C96.8086 102.588 96.05 102.496 95.4168 102.315C94.785 102.134 94.2673 101.87 93.8625 101.526C93.4558 101.181 93.1559 100.762 92.9645 100.273C92.7716 99.7821 92.6763 99.2249 92.6763 98.6024L92.6635 91.2957Z" fill="#5D5D5D"/>
<path d="M109.63 101.753C109.672 101.76 109.719 101.765 109.769 101.765C109.822 101.765 109.873 101.765 109.924 101.765C110.462 101.765 111.016 101.68 111.588 101.514C112.161 101.347 112.741 101.069 113.331 100.684V95.317C112.766 95.0793 112.218 94.9076 111.684 94.7988C111.152 94.6914 110.627 94.6369 110.117 94.6369C109.944 94.6369 109.782 94.6483 109.63 94.6712V101.753ZM103.776 98.1227C103.776 97.506 103.918 96.9373 104.205 96.4135C104.491 95.8896 104.898 95.4371 105.429 95.055C105.958 94.6726 106.597 94.375 107.349 94.1588C108.1 93.944 108.941 93.8366 109.873 93.8366C110.435 93.8366 111.016 93.8854 111.614 93.9854C112.211 94.0858 112.784 94.2403 113.331 94.448V91.3857C112.973 91.2958 112.588 91.2254 112.179 91.1739C111.769 91.1224 111.372 91.0968 110.985 91.0968C110.585 91.0968 110.18 91.118 109.769 91.1625C109.359 91.2083 108.971 91.2743 108.604 91.3628C108.238 91.453 107.897 91.5618 107.586 91.6921C107.274 91.821 107.013 91.9728 106.799 92.1432C106.679 92.2391 106.559 92.3122 106.441 92.3593C106.321 92.4095 106.214 92.4324 106.119 92.4324C105.941 92.4324 105.8 92.3893 105.697 92.3034C105.595 92.2189 105.544 92.1132 105.544 91.987C105.544 91.9055 105.565 91.821 105.609 91.7365C105.65 91.6507 105.731 91.5648 105.851 91.4746C105.971 91.386 106.132 91.2928 106.338 91.1968C106.542 91.0995 106.812 90.9952 107.144 90.8847C107.742 90.6915 108.396 90.5427 109.103 90.4397C109.813 90.335 110.554 90.2834 111.333 90.2834C112.262 90.2834 113.142 90.3521 113.97 90.4898C114.799 90.6258 115.489 90.8134 116.045 91.0507C116.507 91.2527 116.91 91.4816 117.255 91.7422C117.602 92.0015 117.89 92.3034 118.12 92.6499C118.351 92.995 118.525 93.3916 118.639 93.8424C118.754 94.2905 118.811 94.8072 118.811 95.3944V102.376H113.331V101.642C112.741 101.984 112.148 102.226 111.55 102.372C110.953 102.516 110.333 102.588 109.694 102.588C108.823 102.588 108.026 102.491 107.305 102.293C106.584 102.097 105.959 101.809 105.435 101.43C104.91 101.052 104.502 100.585 104.212 100.033C103.921 99.4798 103.776 98.8429 103.776 98.1227Z" fill="#5D5D5D"/>
<path d="M122.826 90.4837H128.333V102.376H122.826V90.4837ZM125.58 88.534C124.657 88.534 123.95 88.3637 123.454 88.023C122.958 87.6806 122.711 87.2311 122.711 86.6756C122.711 86.4453 122.784 86.2262 122.927 86.0184C123.074 85.8097 123.277 85.6262 123.536 85.4673C123.797 85.3071 124.107 85.1798 124.466 85.0825C124.824 84.9866 125.222 84.9377 125.657 84.9377C126.118 84.9377 126.525 84.9936 126.88 85.1054C127.234 85.2155 127.533 85.3616 127.776 85.539C128.019 85.7178 128.206 85.9171 128.333 86.1403C128.462 86.3635 128.526 86.5854 128.526 86.8073C128.526 87.0449 128.45 87.2712 128.301 87.4816C128.152 87.695 127.944 87.8782 127.68 88.0344C127.415 88.1889 127.104 88.3118 126.745 88.4007C126.387 88.4896 125.998 88.534 125.58 88.534Z" fill="#5D5D5D"/>
<path d="M132.516 90.4838H138.023V92.3876C138.748 91.6907 139.537 91.1638 140.391 90.8117C141.245 90.4595 142.108 90.2834 142.978 90.2834C145.993 90.2834 147.499 91.553 147.499 94.0912V102.376H141.993V91.6964C141.899 91.6449 141.788 91.6018 141.659 91.5702C141.532 91.5358 141.394 91.5187 141.25 91.5187C141.036 91.5187 140.796 91.5702 140.532 91.6692C140.268 91.7692 139.989 91.9109 139.7 92.0927C139.41 92.2745 139.122 92.4937 138.836 92.7499C138.549 93.0061 138.279 93.2895 138.023 93.6016V102.376H132.516V90.4838Z" fill="#5D5D5D"/>
<path d="M150.691 100.884C150.691 100.773 150.735 100.671 150.826 100.579C150.915 100.485 151.045 100.439 151.216 100.439C151.335 100.439 151.441 100.476 151.537 100.551C151.63 100.625 151.737 100.71 151.857 100.807C152.061 100.962 152.304 101.103 152.586 101.231C152.869 101.357 153.173 101.464 153.503 101.553C153.831 101.642 154.173 101.709 154.527 101.753C154.881 101.798 155.233 101.821 155.582 101.821C155.967 101.821 156.299 101.793 156.575 101.742C156.853 101.69 157.083 101.622 157.261 101.537C157.441 101.451 157.573 101.355 157.657 101.246C157.744 101.139 157.786 101.033 157.786 100.929C157.786 100.818 157.763 100.711 157.715 100.611C157.669 100.512 157.568 100.389 157.415 100.244C157.261 100.1 157.043 99.9252 156.761 99.7206C156.48 99.5159 156.105 99.2553 155.635 98.9358C154.669 98.2816 153.879 97.709 153.265 97.2151C152.651 96.7212 152.164 96.2704 151.804 95.8624C151.446 95.4543 151.199 95.0749 151.063 94.7271C150.925 94.378 150.858 94.0215 150.858 93.6579C150.858 93.197 150.988 92.763 151.248 92.3536C151.509 91.9456 151.877 91.5877 152.355 91.2786C152.835 90.9723 153.412 90.7289 154.091 90.5511C154.771 90.3723 155.527 90.2834 156.365 90.2834C156.621 90.2834 156.887 90.2949 157.165 90.3164C157.442 90.338 157.715 90.3693 157.985 90.4053C158.254 90.4437 158.507 90.4898 158.747 90.5454C158.987 90.6013 159.203 90.6615 159.4 90.7289C159.861 90.8918 160.228 91.0682 160.502 91.2584C160.773 91.4473 160.911 91.6449 160.911 91.854C160.911 91.9499 160.876 92.0415 160.803 92.126C160.73 92.2119 160.621 92.2533 160.475 92.2533C160.339 92.2533 160.212 92.2119 160.098 92.126C159.982 92.0415 159.827 91.9341 159.63 91.8096C159.143 91.5261 158.619 91.3271 158.055 91.2083C157.492 91.0894 156.976 91.0295 156.505 91.0295C156.002 91.0295 155.648 91.0965 155.449 91.2298C155.248 91.3628 155.148 91.516 155.148 91.6863C155.148 91.7752 155.178 91.8769 155.237 91.9927C155.297 92.1089 155.406 92.2449 155.565 92.4051C155.721 92.564 155.941 92.7516 156.217 92.9663C156.494 93.1825 156.856 93.4272 157.299 93.702C158.179 94.2733 158.905 94.7786 159.478 95.2153C160.048 95.6546 160.5 96.06 160.828 96.435C161.156 96.8114 161.384 97.1737 161.513 97.5214C161.64 97.8709 161.705 98.2345 161.705 98.6139C161.705 99.1923 161.56 99.7246 161.269 100.211C160.98 100.698 160.566 101.118 160.026 101.47C159.49 101.822 158.836 102.097 158.068 102.293C157.299 102.491 156.436 102.588 155.48 102.588C155.156 102.588 154.819 102.571 154.47 102.538C154.119 102.505 153.778 102.455 153.445 102.388C153.111 102.32 152.792 102.242 152.49 102.148C152.187 102.055 151.916 101.951 151.678 101.832C151.019 101.511 150.691 101.196 150.691 100.884Z" fill="#5D5D5D"/>
<path d="M144.187 59.181C144.187 59.181 144.353 58.78 144.662 58.0272C145.001 57.2785 145.372 56.1661 145.809 54.7505C146.021 54.0388 146.251 53.2543 146.412 52.3783C146.613 51.5151 146.776 50.5731 146.919 49.5651C147.099 48.5672 147.118 47.4721 147.229 46.35C147.21 45.2046 147.353 44.0293 147.263 42.7783C147.238 42.1581 147.215 41.5242 147.19 40.8798C147.113 40.2428 147.035 39.5958 146.956 38.9372C146.877 38.2501 146.798 37.5502 146.716 36.8401C146.577 36.1931 146.435 35.5359 146.29 34.8716C145.774 32.2132 144.669 29.4087 143.486 26.6658C142.107 23.9788 140.513 21.2874 138.447 18.8824C137.983 18.2411 137.426 17.6727 136.869 17.103C136.304 16.5404 135.793 15.9233 135.198 15.3879C133.987 14.3386 132.824 13.222 131.475 12.3315C130.219 11.318 128.799 10.5392 127.427 9.70174C126.739 9.28801 125.984 8.99457 125.275 8.62235C124.557 8.26734 123.848 7.89226 123.087 7.64461C122.34 7.36258 121.596 7.08197 120.856 6.8028C120.11 6.53653 119.34 6.35904 118.588 6.13142C117.092 5.6275 115.538 5.45856 114.032 5.15509C113.279 4.99046 112.511 5.00763 111.759 4.92461C111.04 4.86306 110.328 4.80294 109.623 4.74281C108.061 4.76856 106.441 4.6984 105.032 4.80435C102.322 5.04486 99.6287 5.44429 97.2145 6.14146C94.8048 6.82859 92.6462 7.70042 90.7601 8.57512C89.8288 9.04753 88.9572 9.48987 88.1513 9.89788C87.3662 10.3617 86.6468 10.7854 85.996 11.1705C84.6698 11.9192 83.7076 12.6336 83.0073 13.0659C82.3125 13.5097 81.9414 13.7459 81.9414 13.7459C81.9414 13.7459 82.2351 13.4238 82.7866 12.8183C83.367 12.2442 84.1113 11.2736 85.281 10.2701C85.8541 9.74756 86.4873 9.17065 87.1774 8.54074C87.9085 7.9538 88.7321 7.35827 89.6047 6.6983C91.3919 5.44856 93.5207 4.12294 96.0592 3.05355C96.3723 2.91039 96.6895 2.7658 97.0081 2.61834C97.3418 2.50525 97.6765 2.39074 98.0157 2.27622C98.6984 2.0443 99.3933 1.80953 100.099 1.57046C100.795 1.29417 101.569 1.17246 102.342 1.0107C103.122 0.856085 103.914 0.70004 104.716 0.539702C106.292 0.28059 107.779 0.210471 109.371 0.0315253L109.519 0.0171956L109.594 0.0100308L109.63 0.00573188L109.796 0H110.11L110.745 0.00286593L112.026 0.0300923C112.881 0.0730394 113.757 0.0171816 114.622 0.146023C116.355 0.379368 118.149 0.491054 119.898 0.956314C120.777 1.16532 121.678 1.32707 122.557 1.58189C123.422 1.87823 124.292 2.17599 125.165 2.47519C126.053 2.74432 126.888 3.14518 127.733 3.53027C128.572 3.92824 129.445 4.27326 130.251 4.74281C131.855 5.69049 133.506 6.58808 134.977 7.74766C136.526 8.80415 137.872 10.0983 139.255 11.3366C139.94 11.9622 140.525 12.6837 141.152 13.358C141.775 14.0365 142.392 14.7151 142.913 15.4681C143.454 16.2011 143.993 16.9312 144.53 17.6584C145.008 18.4229 145.445 19.2074 145.898 19.9732L146.565 21.1242C146.767 21.5165 146.94 21.9216 147.127 22.3182C147.489 23.1141 147.85 23.9044 148.209 24.6874C149.443 27.9185 150.284 31.0808 150.598 34.2731C150.681 35.0662 150.763 35.848 150.844 36.6179C150.869 37.3512 150.858 38.0454 150.847 38.744C150.832 39.4712 150.818 40.1869 150.804 40.8886C150.735 41.5814 150.668 42.2615 150.603 42.9271C150.501 44.2556 150.215 45.5224 150.015 46.7149C149.689 47.899 149.463 49.0255 149.091 50.0506C148.745 51.0798 148.429 52.0376 148.016 52.8837C147.656 53.7469 147.249 54.504 146.88 55.1827C146.537 55.8699 146.144 56.4496 145.817 56.9506C145.498 57.4603 145.207 57.867 144.952 58.1888C144.454 58.8359 144.187 59.181 144.187 59.181Z" fill="#FF9831"/>
<g filter="url(#filter0_i)">
<path d="M18.6091 116.655V119.753L19.9658 120.274V121.2H15.6758V120.274L17.0324 119.753V111.201L15.6758 110.713V109.754H22.9724C24.158 109.754 25.0563 110.046 25.6674 110.629C26.2786 111.212 26.5841 112.071 26.5841 113.205C26.5841 114.338 26.2602 115.197 25.6124 115.78C24.9769 116.363 24.0419 116.655 22.8074 116.655H18.6091ZM24.9341 113.205C24.9341 112.419 24.763 111.852 24.4208 111.504C24.0908 111.145 23.5591 110.966 22.8258 110.966H18.6091V115.443H22.6424C23.4613 115.443 24.048 115.269 24.4024 114.921C24.7569 114.574 24.9341 114.001 24.9341 113.205ZM44.935 120.274V121.2H42.8267L39.3801 116.453H36.2084V119.753L37.565 120.274V121.2H33.275V120.274L34.6317 119.753V111.201L33.275 110.713V109.754H40.5901C41.7755 109.754 42.6738 110.04 43.2851 110.612C43.8963 111.173 44.2017 112.004 44.2017 113.104C44.2017 114.08 43.9451 114.848 43.4317 115.41C42.9305 115.959 42.1913 116.291 41.2134 116.403L43.6884 119.77L44.935 120.274ZM36.2084 115.241H40.2601C41.0788 115.241 41.6655 115.079 42.02 114.753C42.3746 114.416 42.5517 113.867 42.5517 113.104C42.5517 112.352 42.3805 111.807 42.0384 111.471C41.7084 111.134 41.1767 110.966 40.4434 110.966H36.2084V115.241ZM56.0418 110.713L54.6851 111.201V119.77L56.0418 120.274V121.2H51.7517V120.274L53.1084 119.77V111.201L51.7517 110.713V109.754H56.0418V110.713ZM77.0155 111.201V119.77L78.3721 120.274V121.2H74.1738V120.274L75.4388 119.77V110.865L71.2771 119.77H70.0488L65.8688 110.865V119.77L67.1338 120.274V121.2H63.1921V120.274L64.5488 119.77V111.201L63.1921 110.713V109.754H67.0605L70.8188 117.884L74.5771 109.754H78.3721V110.713L77.0155 111.201ZM89.8257 110.713L88.469 111.201V119.77L89.8257 120.274V121.2H85.5357V120.274L86.8924 119.77V111.201L85.5357 110.713V109.754H89.8257V110.713ZM107.632 112.986H106.624L106.092 110.966H102.774V119.77L104.314 120.274V121.2H99.6571V120.274L101.197 119.77V110.966H97.8788L97.3471 112.986H96.3388V109.754H107.632V112.986ZM118.436 110.713L117.079 111.201V119.77L118.436 120.274V121.2H114.146V120.274L115.503 119.77V111.201L114.146 110.713V109.754H118.436V110.713ZM137.243 109.754V110.713L135.978 111.201L131.835 121.2H129.873L125.73 111.201L124.465 110.713V109.754H128.773V110.713L127.417 111.201L130.992 120.022L134.585 111.201L133.228 110.713V109.754H137.243ZM153.821 112.733H152.739L152.263 110.966H146.029V114.837H149.678L149.953 113.541H150.961V117.345H149.953L149.678 116.049H146.029V119.988H152.263L152.739 118.052H153.821V121.2H143.096V120.274L144.453 119.77V111.201L143.096 110.713V109.754H153.821V112.733Z" fill="#5D5D5D"/>
</g>
<defs>
<filter id="filter0_i" x="15.6758" y="109.754" width="138.145" height="11.4467" filterUnits="userSpaceOnUse" color-interpolation-filters="sRGB">
<feFlood flood-opacity="0" result="BackgroundImageFix"/>
<feBlend mode="normal" in="SourceGraphic" in2="BackgroundImageFix" result="shape"/>
<feColorMatrix in="SourceAlpha" type="matrix" values="0 0 0 0 0 0 0 0 0 0 0 0 0 0 0 0 0 0 127 0" result="hardAlpha"/>
<feOffset dy="20"/>
<feGaussianBlur stdDeviation="2"/>
<feComposite in2="hardAlpha" operator="arithmetic" k2="-1" k3="1"/>
<feColorMatrix type="matrix" values="0 0 0 0 0 0 0 0 0 0 0 0 0 0 0 0 0 0 0.25 0"/>
<feBlend mode="normal" in2="shape" result="effect1_innerShadow"/>
</filter>
</defs>
</svg>
