<svg width="51" height="60" viewBox="0 0 51 60" fill="none" xmlns="http://www.w3.org/2000/svg">
<path d="M9.28457 4.10194L22.3475 4.0828C22.6382 3.88082 23.3832 3.19877 23.5973 3.00147L11.7618 1.65566L9.28457 4.10194ZM14.2567 0.380856L25.4226 1.65013C25.4673 1.59315 25.5191 1.53915 25.5869 1.4928C26.536 0.845615 27.7336 0.532659 28.8793 0.380856H14.2567ZM12.4264 13.6128C12.5077 13.5749 13.6372 12.9682 13.9723 12.676H4.1875L12.4264 13.6128ZM18.6793 6.89137C18.93 6.47338 19.5057 5.64038 19.5184 5.61997L9.52385 6.22633L18.6793 6.89137ZM6.89555 7.73117H18.1171C17.905 7.98843 16.8616 9.51368 16.6724 9.77009H4.83119L6.89555 7.73117" fill="#81DEFF"/>
<path d="M10.4865 14.5481C10.7576 14.4779 11.028 14.4061 11.2915 14.3083C11.4382 14.2628 11.579 14.1998 11.7211 14.1407C11.8644 14.0842 12.0052 14.0225 12.1425 13.9511C12.4219 13.8214 12.6899 13.6658 12.9546 13.5063C13.218 13.343 13.472 13.1657 13.7215 12.9807C14.7096 12.2251 15.5779 11.3143 16.3663 10.3423C17.1512 9.36512 17.8613 8.32758 18.5684 7.29685C18.9228 6.78234 19.2712 6.26442 19.6457 5.77584C19.9741 5.3536 20.3206 4.93816 20.7091 4.6269C21.5166 5.66316 22.1467 6.85249 22.8414 8.02609C23.0272 8.33608 23.2199 8.64479 23.436 8.94585C23.653 9.2452 23.8914 9.542 24.2057 9.79288C24.3592 9.91959 24.5423 10.0285 24.7445 10.1033C24.9458 10.1841 25.1771 10.2015 25.3941 10.1798C25.615 10.1569 25.8148 10.0761 25.9983 9.98295C26.0824 9.9383 26.1606 9.88813 26.2363 9.8354C27.3913 10.8461 28.3946 12.0385 29.205 13.3796C29.6385 14.0876 30.0269 14.827 30.4093 15.5899C30.4249 15.6209 30.4412 15.652 30.4568 15.683C30.4105 16.4667 30.3212 17.5578 30.1649 18.0158C29.9088 18.7667 28.8847 16.5152 27.6684 16.4454C28.0042 16.4645 31.9941 22.4032 32.1241 23.1379C30.7188 22.1225 29.2584 20.4574 27.7705 19.7664C27.9328 20.428 28.1103 21.1271 28.0947 21.8253C27.668 21.483 27.28 21.1088 26.9207 20.7104C25.8699 19.547 25.0611 18.179 24.2332 16.806C24.5618 17.3507 24.8099 21.065 24.8477 21.7326C24.2683 20.9357 23.9919 19.8684 23.6338 18.9614C22.8785 19.9254 21.5621 19.4955 20.7745 20.2469C20.2229 20.7733 20.3051 21.6322 19.8003 22.265C19.0338 23.2247 17.2721 23.3114 16.7155 23.8204C18.1886 22.6591 16.2674 21.6352 19.0852 18.9716C21.391 17.5378 19.6616 16.172 19.5336 14.6697C19.8539 13.8503 20.2381 11.8701 19.0212 11.3917C18.5036 14.7033 15.8418 15.194 13.724 17.1122C12.8236 17.9273 7.27797 21.4741 7.14525 22.2348C7.45663 20.4497 9.60904 16.2362 10.4865 14.5481V14.5481ZM32.2051 17.7772C32.3056 17.8002 32.4077 17.8163 32.5138 17.8176C32.6306 17.8146 32.7463 17.7989 32.8567 17.7678C33.0773 17.7045 33.2655 17.5901 33.423 17.4638C33.7385 17.207 33.9538 16.9068 34.148 16.6113C34.341 16.3136 34.5038 16.0113 34.6621 15.72C34.7223 15.6094 34.7809 15.5044 34.8399 15.4007C35.007 15.6379 35.1697 15.8765 35.3456 16.1103C35.626 16.5092 35.9486 16.8634 36.2481 17.2414C36.5476 17.6203 36.871 17.9711 37.1896 18.327C37.5099 18.6812 37.8245 19.0418 38.1495 19.3901C38.8099 20.0738 39.4719 20.7559 40.1403 21.4294L41.0233 22.2709C40.124 24.0509 36.8989 20.4735 35.8648 19.1766C35.0322 20.5424 37.338 22.3861 36.0571 22.7961C34.7949 22.0111 33.2503 19.6924 32.1094 17.753C32.1413 17.7615 32.1716 17.7721 32.2051 17.7772V17.7772ZM44.1366 24.4399C43.6158 23.9407 43.0934 23.4437 42.5925 22.9219L40.6081 20.906L38.6823 18.8334C38.3673 18.4835 38.0642 18.1225 37.7543 17.7674C37.4465 17.4115 37.133 17.0594 36.8487 16.6848C36.5627 16.3119 36.2533 15.9556 35.9873 15.5695C35.7097 15.194 35.4385 14.8083 35.1757 14.4095L34.9293 14.0353L34.5911 14.3159C34.4699 14.4167 34.4108 14.5017 34.3478 14.5851C34.2892 14.6672 34.2394 14.7454 34.1931 14.8224C34.1006 14.9759 34.0192 15.1243 33.9387 15.2697C33.7783 15.5597 33.6232 15.8403 33.4541 16.0959C33.287 16.3497 33.1036 16.5849 32.9122 16.7346C32.7152 16.8864 32.5568 16.931 32.3846 16.8825L32.3658 16.877L32.3216 16.8706C32.2697 16.863 32.1768 16.8124 32.0691 16.6916C31.9634 16.5747 31.8562 16.4169 31.7545 16.2502C31.5511 15.9092 31.3601 15.532 31.1662 15.1528C30.7782 14.392 30.3778 13.6152 29.91 12.8821C29.4454 12.1465 28.927 11.4444 28.3543 10.796C27.7837 10.145 27.1468 9.56284 26.4784 9.03344L26.2471 8.85017L26.0262 9.0428C25.9105 9.144 25.7929 9.23797 25.6717 9.30771C25.5504 9.37362 25.4288 9.42804 25.3099 9.44335C25.1911 9.45653 25.0731 9.45909 24.953 9.41401C24.8338 9.37404 24.711 9.31153 24.5933 9.22011C24.1144 8.85825 23.7184 8.25614 23.3387 7.67614C22.5818 6.49106 21.8699 5.21881 20.9204 4.12685L20.7824 3.96824L20.6261 4.08518C20.0889 4.48871 19.7078 5.00493 19.3346 5.51391C18.968 6.02885 18.623 6.55315 18.2799 7.07702C17.5961 8.1256 16.9079 9.16611 16.1354 10.1318C15.7502 10.6148 15.3464 11.08 14.918 11.5176C14.7064 11.7391 14.4817 11.9453 14.2542 12.1469C14.0272 12.3497 13.7898 12.5372 13.5504 12.7218C13.3071 12.9004 13.0596 13.0713 12.8037 13.2274C12.5467 13.3804 12.2869 13.5297 12.0168 13.6534C11.7507 13.787 11.4729 13.8933 11.1936 13.9881C10.9146 14.0867 10.6283 14.1552 10.3423 14.2241L10.2706 14.2415L10.2311 14.3112C9.79488 15.0771 9.31944 15.8161 8.82206 16.5368C8.58167 16.903 8.31033 17.2474 8.05669 17.6024C7.80745 17.9613 7.54624 18.3113 7.28387 18.6595L6.49549 19.703C6.2291 20.0479 5.9716 20.3995 5.69539 20.7359L4.87603 21.7521C4.59452 22.0834 4.32051 22.4214 4.04881 22.7612L2.9668 24.4399H44.1366Z" fill="#5D5D5D"/>
<path d="M3.74805 31.6108L4.95317 33.0208L16.4878 35.325H6.16965C6.70024 35.8472 7.24967 36.3876 7.79147 36.9196L36.8975 35.1545L16.1816 33.6492H39.5255L41.5901 31.6108H3.74805ZM34.6594 39.7252L37.1367 37.2789H13.1442L34.6594 39.7252ZM32.1646 41H15.2594L17.0049 39.2766L32.1646 41Z" fill="#81DEFF"/>
<path d="M38.8868 6.13818L38.7799 5.90772C38.468 5.23715 38.1362 4.57763 37.7885 3.92918H23.6484L24.8181 5.29753L36.0131 7.53375H25.9985C26.5138 8.04061 27.047 8.5649 27.5726 9.08154L39.7944 8.34039C39.5209 7.59371 39.2162 6.85978 38.8868 6.13818" fill="#FF9831"/>
<path d="M2.93406 30.2859C2.93877 30.2506 2.94623 30.2187 2.95683 30.1902C2.96728 30.1613 2.9875 30.1209 3.01805 30.0682C3.03643 30.035 3.05342 30.004 3.06865 29.9755C3.08361 29.947 3.09936 29.9151 3.11571 29.8811C3.1319 29.8466 3.15061 29.8062 3.17166 29.7603C3.19268 29.714 3.2182 29.6566 3.24843 29.5885L4.68393 25.5166L6.22771 28.3414L7.7263 25.5166L9.51824 30.4083H7.64251L6.77637 27.8813L5.4351 30.5278L4.02393 28.1462L3.53477 29.5919C3.49521 29.6753 3.4639 29.7488 3.44053 29.8113C3.41716 29.8747 3.39754 29.93 3.38115 29.9784C3.3648 30.0269 3.35096 30.0711 3.33928 30.1107C3.32759 30.1507 3.31463 30.1881 3.30095 30.2234C3.27292 30.3139 3.23926 30.3765 3.19954 30.4117C3.15998 30.447 3.1134 30.4623 3.0598 30.4581C3.01554 30.4538 2.98176 30.4351 2.95855 30.402C2.93518 30.3688 2.92708 30.3305 2.93406 30.2859" fill="#5D5D5D"/>
<path d="M11.7853 30.2238C11.804 30.2259 11.8219 30.2272 11.8395 30.2272C11.857 30.2272 11.8738 30.2272 11.8901 30.2272C12.1137 30.2272 12.3279 30.1919 12.5329 30.1213C12.7377 30.0507 12.9183 29.9474 13.0742 29.8117C13.2303 29.6765 13.3543 29.5103 13.446 29.3138C13.538 29.1178 13.5844 28.8941 13.5844 28.6424C13.5844 28.4047 13.5423 28.1887 13.4587 27.9944C13.3744 27.8005 13.2577 27.6338 13.1077 27.4947C12.9572 27.3561 12.7784 27.2485 12.5712 27.1724C12.364 27.0963 12.1358 27.0585 11.8866 27.0585C11.8679 27.0585 11.8506 27.0585 11.8342 27.0585C11.8178 27.0585 11.8017 27.0593 11.7853 27.0614V30.2238ZM9.88867 28.6062C9.88867 28.3528 9.93932 28.1172 10.0406 27.9C10.1418 27.6827 10.2817 27.4939 10.4599 27.3327C10.638 27.172 10.8498 27.0457 11.0953 26.9539C11.3412 26.8629 11.6083 26.8169 11.8972 26.8169C12.1998 26.8169 12.4729 26.8646 12.7164 26.9606C12.9596 27.0567 13.1669 27.1864 13.3379 27.351C13.5091 27.5156 13.6402 27.7078 13.7308 27.928C13.8215 28.1487 13.8671 28.3839 13.8671 28.633C13.8671 28.886 13.8199 29.1246 13.7257 29.347C13.6316 29.5702 13.4974 29.7645 13.3239 29.9308C13.1505 30.0975 12.942 30.2293 12.6988 30.3263C12.4555 30.4232 12.1835 30.4717 11.8831 30.4717C11.6013 30.4717 11.3394 30.427 11.0972 30.3377C10.8552 30.2484 10.6442 30.1217 10.465 29.9576C10.2858 29.793 10.1448 29.5962 10.0424 29.367C9.93992 29.1378 9.88867 28.8843 9.88867 28.6062" fill="#5D5D5D"/>
<path d="M14.7578 26.8765H16.2525V30.1145C16.2759 30.1256 16.3052 30.1311 16.3401 30.1311C16.3748 30.1311 16.4132 30.1311 16.4553 30.1311C16.5111 30.1311 16.5758 30.1162 16.649 30.0864C16.7225 30.0567 16.7993 30.0154 16.8795 29.9627C16.96 29.9095 17.0392 29.8466 17.1171 29.7739C17.195 29.7008 17.2677 29.6217 17.3355 29.5358V26.8765H18.8374V30.4087H17.3355V29.8993C17.1373 30.0979 16.9216 30.2429 16.6874 30.3348C16.4534 30.4258 16.219 30.4717 15.9838 30.4717C15.5668 30.4717 15.2583 30.3769 15.058 30.1872C14.8579 29.998 14.7578 29.7144 14.7578 29.3372V26.8765" fill="#5D5D5D"/>
<path d="M19.9785 26.8764H21.48V27.4419C21.6778 27.2349 21.8931 27.0784 22.126 26.9738C22.3589 26.8692 22.5942 26.8169 22.8319 26.8169C23.6538 26.8169 24.065 27.194 24.065 27.9479V30.4087H22.5631V27.2366C22.5376 27.2213 22.5069 27.2085 22.4722 27.1991C22.4375 27.1889 22.4 27.1838 22.3601 27.1838C22.3023 27.1838 22.2369 27.1991 22.1647 27.2285C22.0925 27.2582 22.0168 27.3003 21.9378 27.3543C21.8584 27.4083 21.7799 27.4734 21.7021 27.5495C21.6239 27.6256 21.5502 27.7098 21.48 27.8025V30.4087H19.9785V26.8764" fill="#5D5D5D"/>
<path d="M25.2719 27.1176C25.2204 27.1176 25.1769 27.1184 25.1411 27.1193C25.1048 27.1205 25.0741 27.1222 25.0485 27.1244C25.0134 27.1269 24.9835 27.129 24.9576 27.1307C24.9321 27.1333 24.9026 27.1341 24.8703 27.1341C24.8168 27.1341 24.7718 27.1227 24.7355 27.0997C24.7 27.0767 24.6816 27.044 24.6816 27.0023C24.6816 26.9555 24.7 26.9207 24.7355 26.8981C24.7718 26.8748 24.8212 26.8633 24.8846 26.8633C24.9026 26.8633 24.9225 26.8637 24.9436 26.8645C24.9648 26.8658 24.9935 26.8675 25.031 26.8697C25.0565 26.8718 25.0844 26.8735 25.1147 26.8748C25.145 26.876 25.1801 26.8765 25.2196 26.8765H25.2719V26.3636L26.7705 25.7288V26.8765H27.2387C27.2734 26.8765 27.3065 26.876 27.338 26.8748C27.3695 26.8735 27.399 26.8718 27.4269 26.8697C27.462 26.8675 27.49 26.8658 27.5107 26.8645C27.5318 26.8637 27.5518 26.8633 27.5705 26.8633C27.6307 26.8633 27.6802 26.8748 27.7189 26.8981C27.7571 26.9207 27.7763 26.9555 27.7763 27.0023C27.7763 27.044 27.7571 27.0767 27.7189 27.0997C27.6802 27.1227 27.6367 27.1341 27.5877 27.1341C27.5554 27.1341 27.5254 27.1333 27.4987 27.1307C27.472 27.129 27.4425 27.1269 27.4098 27.1244C27.3791 27.1222 27.3444 27.1205 27.3049 27.1193C27.265 27.1184 27.2152 27.1176 27.1546 27.1176H26.7705V30.2272C26.9121 30.2251 27.0369 30.2068 27.1442 30.1723C27.2511 30.1383 27.354 30.0826 27.4517 30.0052C27.4931 29.9746 27.531 29.9355 27.5649 29.8879C27.5988 29.8407 27.6251 29.7926 27.6435 29.7441C27.6742 29.6629 27.7037 29.6081 27.7328 29.5804C27.7615 29.5528 27.7958 29.5392 27.8357 29.5392C27.8756 29.5392 27.9091 29.5541 27.937 29.5838C27.9649 29.6132 27.9789 29.6514 27.9789 29.6978C27.9789 29.7331 27.9673 29.7756 27.9438 29.8249C27.9206 29.8751 27.886 29.9274 27.8393 29.9823C27.7922 30.0371 27.7356 30.0924 27.6682 30.1477C27.6004 30.2029 27.5215 30.2544 27.4305 30.3029C27.326 30.356 27.2088 30.3973 27.0792 30.427C26.9504 30.4568 26.8052 30.4717 26.6449 30.4717C26.4024 30.4717 26.1955 30.4445 26.0228 30.3905C25.8505 30.3369 25.7093 30.2586 25.5989 30.1562C25.488 30.0537 25.4062 29.9295 25.354 29.7841C25.3014 29.6383 25.2754 29.4728 25.2754 29.2879L25.2719 27.1176" fill="#5D5D5D"/>
<path d="M29.8991 30.2238C29.9107 30.2259 29.9234 30.2272 29.937 30.2272C29.9514 30.2272 29.9653 30.2272 29.9793 30.2272C30.126 30.2272 30.2772 30.2021 30.4331 30.1528C30.5894 30.103 30.7477 30.0205 30.9085 29.9061V28.312C30.7545 28.2414 30.605 28.1904 30.4594 28.1581C30.3143 28.1262 30.1711 28.11 30.0319 28.11C29.9848 28.11 29.9406 28.1134 29.8991 28.1202V30.2238ZM28.3027 29.1454C28.3027 28.9622 28.3414 28.7933 28.4196 28.6377C28.4977 28.4821 28.6086 28.3477 28.7534 28.2342C28.8977 28.1206 29.072 28.0322 29.277 27.968C29.482 27.9042 29.7113 27.8723 29.9653 27.8723C30.1188 27.8723 30.2772 27.8868 30.4403 27.9165C30.603 27.9463 30.7593 27.9922 30.9085 28.0539V27.1443C30.8108 27.1176 30.7059 27.0967 30.5942 27.0814C30.4825 27.0661 30.3741 27.0585 30.2688 27.0585C30.1595 27.0585 30.0491 27.0648 29.937 27.078C29.8253 27.0916 29.7193 27.1112 29.6192 27.1375C29.5195 27.1643 29.4265 27.1966 29.3416 27.2353C29.2567 27.2736 29.1853 27.3187 29.127 27.3693C29.0943 27.3978 29.0616 27.4195 29.0293 27.4335C28.9966 27.4484 28.9675 27.4552 28.9416 27.4552C28.893 27.4552 28.8547 27.4424 28.8264 27.4169C28.7988 27.3918 28.7849 27.3604 28.7849 27.3229C28.7849 27.2987 28.7905 27.2736 28.8024 27.2485C28.8136 27.223 28.8359 27.1975 28.8686 27.1707C28.9013 27.1444 28.9452 27.1167 29.0014 27.0882C29.0569 27.0593 29.1306 27.0283 29.2212 26.9955C29.3843 26.9381 29.5625 26.8939 29.7555 26.8633C29.949 26.8322 30.1511 26.8169 30.3637 26.8169C30.6169 26.8169 30.857 26.8373 31.0827 26.8782C31.3088 26.9186 31.4971 26.9743 31.6486 27.0448C31.7746 27.1048 31.8847 27.1728 31.9788 27.2502C32.0733 27.3272 32.1519 27.4169 32.2145 27.5198C32.2775 27.6223 32.325 27.7401 32.3561 27.874C32.3876 28.0071 32.4031 28.1606 32.4031 28.335V30.4087H30.9085V30.1906C30.7477 30.2922 30.5858 30.3641 30.4227 30.4075C30.26 30.4504 30.0909 30.4717 29.9167 30.4717C29.679 30.4717 29.4616 30.4428 29.265 30.3841C29.0684 30.3258 28.8981 30.2404 28.755 30.1277C28.6118 30.0154 28.5005 29.8768 28.4216 29.7127C28.3422 29.5485 28.3027 29.3593 28.3027 29.1454" fill="#5D5D5D"/>
<path d="M33.4983 26.8764H35.0002V30.4087H33.4983V26.8764ZM34.2492 26.2973C33.9976 26.2973 33.8046 26.2467 33.6694 26.1455C33.5342 26.0438 33.4668 25.9103 33.4668 25.7453C33.4668 25.6769 33.4867 25.6118 33.5258 25.5501C33.5657 25.4881 33.6211 25.4336 33.6917 25.3864C33.7631 25.3388 33.8476 25.301 33.9454 25.2721C34.0431 25.2436 34.1515 25.2291 34.2704 25.2291C34.396 25.2291 34.5069 25.2457 34.6038 25.2789C34.7003 25.3116 34.782 25.355 34.8482 25.4077C34.9144 25.4608 34.9655 25.52 35.0002 25.5863C35.0353 25.6526 35.0528 25.7185 35.0528 25.7844C35.0528 25.855 35.0321 25.9222 34.9914 25.9847C34.9507 26.0481 34.8941 26.1025 34.8219 26.1489C34.7497 26.1948 34.6648 26.2313 34.5671 26.2577C34.4694 26.2841 34.3633 26.2973 34.2492 26.2973" fill="#5D5D5D"/>
<path d="M36.1406 26.8764H37.6425V27.4419C37.8403 27.2349 38.0556 27.0784 38.2885 26.9738C38.5214 26.8692 38.7567 26.8169 38.994 26.8169C39.8163 26.8169 40.2271 27.194 40.2271 27.9479V30.4087H38.7252V27.2366C38.6997 27.2213 38.6694 27.2085 38.6343 27.1991C38.5996 27.1889 38.5621 27.1838 38.5226 27.1838C38.4644 27.1838 38.399 27.1991 38.3268 27.2285C38.255 27.2582 38.1789 27.3003 38.0999 27.3543C38.0209 27.4083 37.9424 27.4734 37.8642 27.5495C37.7861 27.6256 37.7123 27.7098 37.6425 27.8025V30.4087H36.1406V26.8764" fill="#5D5D5D"/>
<path d="M41.0977 29.9657C41.0977 29.9325 41.1096 29.9023 41.1343 29.8751C41.1587 29.847 41.1942 29.8334 41.2408 29.8334C41.2731 29.8334 41.3022 29.8445 41.3282 29.8666C41.3537 29.8887 41.3828 29.9138 41.4155 29.9427C41.4713 29.9886 41.5375 30.0307 41.6145 30.0686C41.6915 30.106 41.7744 30.1379 41.8645 30.1642C41.9539 30.1906 42.0472 30.2106 42.1437 30.2238C42.2402 30.237 42.3363 30.2438 42.4316 30.2438C42.5365 30.2438 42.627 30.2357 42.7024 30.2204C42.7782 30.2051 42.8408 30.1847 42.8894 30.1596C42.9385 30.1341 42.9744 30.1056 42.9975 30.0732C43.021 30.0414 43.0326 30.0099 43.0326 29.9788C43.0326 29.9461 43.0262 29.9142 43.0131 29.8845C43.0007 29.8551 42.9732 29.8185 42.9313 29.7756C42.8894 29.7326 42.83 29.6808 42.7531 29.62C42.6765 29.5592 42.574 29.4818 42.446 29.3869C42.1824 29.1926 41.967 29.0225 41.7995 28.8758C41.632 28.7291 41.4992 28.5952 41.4011 28.474C41.3034 28.3528 41.236 28.2401 41.199 28.1368C41.1615 28.0331 41.1431 27.9272 41.1431 27.8192C41.1431 27.6823 41.1786 27.5534 41.2496 27.4318C41.3206 27.3106 41.4211 27.2043 41.5515 27.1125C41.6823 27.0215 41.8398 26.9492 42.0249 26.8964C42.2103 26.8433 42.4165 26.8169 42.645 26.8169C42.7148 26.8169 42.7874 26.8203 42.8631 26.8267C42.9389 26.8331 43.0131 26.8424 43.0868 26.8531C43.1602 26.8645 43.2292 26.8782 43.2946 26.8947C43.36 26.9113 43.419 26.9292 43.4729 26.9492C43.5985 26.9976 43.6986 27.05 43.7732 27.1065C43.8473 27.1626 43.8848 27.2213 43.8848 27.2834C43.8848 27.3119 43.8753 27.3391 43.8553 27.3642C43.8354 27.3897 43.8059 27.402 43.766 27.402C43.7289 27.402 43.6942 27.3897 43.6631 27.3642C43.6316 27.3391 43.5893 27.3072 43.5355 27.2702C43.4027 27.186 43.2599 27.1269 43.106 27.0916C42.9525 27.0563 42.8117 27.0385 42.6833 27.0385C42.5461 27.0385 42.4496 27.0584 42.3953 27.098C42.3403 27.1375 42.3132 27.183 42.3132 27.2336C42.3132 27.26 42.3212 27.2902 42.3375 27.3246C42.3539 27.3591 42.3834 27.3995 42.4268 27.4471C42.4695 27.4943 42.5293 27.55 42.6047 27.6138C42.6801 27.678 42.779 27.7507 42.8998 27.8323C43.1399 28.002 43.3377 28.1521 43.494 28.2818C43.6495 28.4123 43.7728 28.5327 43.8621 28.6441C43.9518 28.7559 44.014 28.8635 44.0491 28.9668C44.0838 29.0706 44.1014 29.1786 44.1014 29.2913C44.1014 29.4631 44.0619 29.6212 43.9825 29.7658C43.9036 29.9104 43.7907 30.035 43.6436 30.1396C43.4972 30.2442 43.3189 30.3258 43.1096 30.3841C42.8998 30.4428 42.6645 30.4717 42.4037 30.4717C42.3152 30.4717 42.2235 30.4666 42.1281 30.4568C42.0324 30.447 41.9395 30.4321 41.8486 30.4122C41.7577 30.3922 41.6707 30.3688 41.5882 30.3411C41.5056 30.3135 41.4318 30.2825 41.3668 30.2472C41.187 30.1519 41.0977 30.0584 41.0977 29.9657" fill="#5D5D5D"/>
<path d="M39.3239 17.5786C39.3239 17.5786 39.369 17.4595 39.4532 17.2359C39.5457 17.0135 39.647 16.6831 39.7662 16.2626C39.824 16.0512 39.8866 15.8182 39.9305 15.558C39.9855 15.3016 40.0298 15.0218 40.0689 14.7224C40.1179 14.426 40.1231 14.1007 40.1534 13.7674C40.1483 13.4272 40.1873 13.0781 40.1626 12.7065C40.1558 12.5223 40.1495 12.334 40.1427 12.1426C40.1219 11.9534 40.1004 11.7612 40.0789 11.5656C40.0573 11.3615 40.0358 11.1536 40.0135 10.9427C39.9756 10.7505 39.9369 10.5553 39.8974 10.358C39.7566 9.56835 39.4552 8.73534 39.1325 7.92063C38.7565 7.12249 38.3218 6.32309 37.7583 5.60872C37.6319 5.41822 37.4799 5.24941 37.328 5.08018C37.174 4.91307 37.0345 4.72979 36.8722 4.57076C36.542 4.25907 36.2249 3.92741 35.8568 3.66292C35.5143 3.36187 35.127 3.13054 34.753 2.88179C34.5651 2.7589 34.3594 2.67174 34.1659 2.56118C33.9701 2.45573 33.7767 2.34432 33.5693 2.27076C33.3656 2.18699 33.1626 2.10364 32.9608 2.02072C32.7574 1.94163 32.5472 1.88891 32.3422 1.8213C31.9343 1.67162 31.5104 1.62144 31.0996 1.5313C30.8942 1.4824 30.6849 1.4875 30.4799 1.46284C30.2837 1.44456 30.0895 1.4267 29.8972 1.40884C29.4713 1.41649 29.0295 1.39565 28.645 1.42712C27.9061 1.49856 27.1715 1.6172 26.5131 1.82428C25.8559 2.02838 25.2672 2.28734 24.7528 2.54715C24.4988 2.68747 24.2611 2.81886 24.0413 2.94005C23.8272 3.07782 23.631 3.20368 23.4535 3.31806C23.0918 3.54045 22.8294 3.75264 22.6384 3.88105C22.4489 4.01287 22.3477 4.08303 22.3477 4.08303C22.3477 4.08303 22.4278 3.98736 22.5782 3.80749C22.7365 3.63698 22.9395 3.34868 23.2585 3.0506C23.4148 2.8954 23.5875 2.72404 23.7757 2.53694C23.9751 2.3626 24.1997 2.18571 24.4377 1.98968C24.9251 1.61847 25.5057 1.22472 26.198 0.907079C26.2834 0.864557 26.3699 0.821609 26.4568 0.777811C26.5478 0.744219 26.6391 0.710206 26.7316 0.676189C26.9178 0.607303 27.1073 0.53757 27.2999 0.466559C27.4897 0.384492 27.7007 0.348342 27.9116 0.300292C28.1242 0.254368 28.3403 0.208018 28.5589 0.160393C28.9888 0.0834289 29.3944 0.0626016 29.8286 0.00944928L29.8689 0.00519294L29.8893 0.00306478L29.8992 0.00178788L29.9443 8.53426e-05H30.03L30.2031 0.00093661L30.5525 0.00902365C30.7858 0.0217802 31.0246 0.00518879 31.2607 0.0434584C31.7333 0.112769 32.2226 0.145943 32.6996 0.284139C32.9392 0.34622 33.1849 0.394265 33.4246 0.469954C33.6607 0.557974 33.8979 0.646419 34.136 0.735289C34.3781 0.81523 34.6058 0.934296 34.8363 1.04868C35.0652 1.16689 35.3033 1.26937 35.523 1.40884C35.9605 1.69033 36.4107 1.95694 36.8119 2.30137C37.2343 2.61518 37.6016 2.99958 37.9788 3.3674C38.1654 3.55322 38.325 3.76752 38.496 3.9678C38.6659 4.16935 38.8342 4.37091 38.9762 4.59457C39.1238 4.81228 39.2709 5.02915 39.4173 5.24516C39.5477 5.47222 39.6669 5.70524 39.7905 5.93273L39.9724 6.27461C40.0274 6.39112 40.0745 6.51146 40.1255 6.62924C40.2244 6.86567 40.3229 7.10039 40.4206 7.33298C40.7572 8.2927 40.9865 9.23201 41.0723 10.1802C41.095 10.4158 41.1173 10.648 41.1393 10.8767C41.146 11.0945 41.1432 11.3007 41.1401 11.5082C41.1361 11.7242 41.1321 11.9368 41.1285 12.1452C41.1097 12.351 41.0914 12.553 41.0735 12.7507C41.0459 13.1453 40.9678 13.5216 40.9131 13.8758C40.8242 14.2275 40.7628 14.5621 40.6611 14.8666C40.567 15.1723 40.4808 15.4568 40.368 15.7081C40.2699 15.9645 40.159 16.1894 40.0581 16.391C39.9648 16.5951 39.8575 16.7673 39.7682 16.9161C39.6813 17.0675 39.6019 17.1883 39.5325 17.2839C39.3965 17.4761 39.3239 17.5786 39.3239 17.5786" fill="#FF9831"/>
<g filter="url(#filter0_d)">
<path d="M5.075 34.65V35.57L5.445 35.725V36H4.275V35.725L4.645 35.57V33.03L4.275 32.885V32.6H6.265C6.58833 32.6 6.83333 32.6867 7 32.86C7.16667 33.0333 7.25 33.2883 7.25 33.625C7.25 33.9617 7.16167 34.2167 6.985 34.39C6.81167 34.5633 6.55667 34.65 6.22 34.65H5.075ZM6.8 33.625C6.8 33.3917 6.75333 33.2233 6.66 33.12C6.57 33.0133 6.425 32.96 6.225 32.96H5.075V34.29H6.175C6.39833 34.29 6.55833 34.2383 6.655 34.135C6.75167 34.0317 6.8 33.8617 6.8 33.625ZM12.2548 35.725V36H11.6798L10.7398 34.59H9.8748V35.57L10.2448 35.725V36H9.0748V35.725L9.4448 35.57V33.03L9.0748 32.885V32.6H11.0698C11.3931 32.6 11.6381 32.685 11.8048 32.855C11.9715 33.0217 12.0548 33.2683 12.0548 33.595C12.0548 33.885 11.9848 34.1133 11.8448 34.28C11.7081 34.4433 11.5065 34.5417 11.2398 34.575L11.9148 35.575L12.2548 35.725ZM9.8748 34.23H10.9798C11.2031 34.23 11.3631 34.1817 11.4598 34.085C11.5565 33.985 11.6048 33.8217 11.6048 33.595C11.6048 33.3717 11.5581 33.21 11.4648 33.11C11.3748 33.01 11.2298 32.96 11.0298 32.96H9.8748V34.23ZM15.2839 32.885L14.9139 33.03V35.575L15.2839 35.725V36H14.1139V35.725L14.4839 35.575V33.03L14.1139 32.885V32.6H15.2839V32.885ZM21.004 33.03V35.575L21.374 35.725V36H20.229V35.725L20.574 35.575V32.93L19.439 35.575H19.104L17.964 32.93V35.575L18.309 35.725V36H17.234V35.725L17.604 35.575V33.03L17.234 32.885V32.6H18.289L19.314 35.015L20.339 32.6H21.374V32.885L21.004 33.03ZM24.4977 32.885L24.1277 33.03V35.575L24.4977 35.725V36H23.3277V35.725L23.6977 35.575V33.03L23.3277 32.885V32.6H24.4977V32.885ZM29.354 33.56H29.079L28.934 32.96H28.029V35.575L28.449 35.725V36H27.179V35.725L27.599 35.575V32.96H26.694L26.549 33.56H26.274V32.6H29.354V33.56ZM32.3005 32.885L31.9305 33.03V35.575L32.3005 35.725V36H31.1305V35.725L31.5005 35.575V33.03L31.1305 32.885V32.6H32.3005V32.885ZM37.4298 32.6V32.885L37.0848 33.03L35.9548 36H35.4198L34.2898 33.03L33.9448 32.885V32.6H35.1198V32.885L34.7498 33.03L35.7248 35.65L36.7048 33.03L36.3348 32.885V32.6H37.4298ZM41.951 33.485H41.656L41.526 32.96H39.826V34.11H40.821L40.896 33.725H41.171V34.855H40.896L40.821 34.47H39.826V35.64H41.526L41.656 35.065H41.951V36H39.026V35.725L39.396 35.575V33.03L39.026 32.885V32.6H41.951V33.485Z" fill="#5D5D5D"/>
</g>
<defs>
<filter id="filter0_d" x="0.275391" y="32.6001" width="45.676" height="27.4" filterUnits="userSpaceOnUse" color-interpolation-filters="sRGB">
<feFlood flood-opacity="0" result="BackgroundImageFix"/>
<feColorMatrix in="SourceAlpha" type="matrix" values="0 0 0 0 0 0 0 0 0 0 0 0 0 0 0 0 0 0 127 0" result="hardAlpha"/>
<feOffset dy="20"/>
<feGaussianBlur stdDeviation="2"/>
<feComposite in2="hardAlpha" operator="out"/>
<feColorMatrix type="matrix" values="0 0 0 0 0 0 0 0 0 0 0 0 0 0 0 0 0 0 0.25 0"/>
<feBlend mode="normal" in2="BackgroundImageFix" result="effect1_dropShadow"/>
<feBlend mode="normal" in="SourceGraphic" in2="effect1_dropShadow" result="shape"/>
</filter>
</defs>
</svg>
