<svg width="13" height="15" viewBox="0 0 13 15" fill="none" xmlns="http://www.w3.org/2000/svg">
<path d="M6.08108 0C2.72804 0 0 2.15942 0 4.81357C0 5.61034 0.251664 6.40035 0.730085 7.10106L5.74854 14.2855C5.81534 14.3813 5.94265 14.4407 6.08108 14.4407C6.21951 14.4407 6.34682 14.3813 6.41363 14.2855L11.4339 7.09869C11.9105 6.40035 12.1622 5.61031 12.1622 4.81354C12.1622 2.15942 9.43413 0 6.08108 0ZM6.08108 7.22034C4.40456 7.22034 3.04056 6.14064 3.04056 4.81357C3.04056 3.48649 4.40456 2.4068 6.08108 2.4068C7.7576 2.4068 9.1216 3.48649 9.1216 4.81357C9.1216 6.14064 7.7576 7.22034 6.08108 7.22034Z" fill="#808080"/>
</svg>
