<svg width="152" height="21" viewBox="0 0 152 21" fill="none" xmlns="http://www.w3.org/2000/svg">
<g clip-path="url(#clip0)">
<path d="M23.9655 8.09075C23.8829 7.86796 23.6628 7.70566 23.398 7.67202L15.9579 6.72596L12.6305 0.826818C12.5121 0.616777 12.2677 0.483887 12 0.483887C11.7324 0.483887 11.488 0.616777 11.3695 0.826818L8.04195 6.72592L0.602009 7.67202C0.337213 7.70566 0.117088 7.86796 0.0344479 8.09067C-0.0482863 8.31347 0.0207136 8.55796 0.212338 8.72137L5.59583 13.3133L4.32514 19.7971C4.27991 20.028 4.38838 20.2612 4.60489 20.3989C4.82141 20.5365 5.10838 20.5547 5.34538 20.4457L12 17.3843L18.6544 20.4456C18.7573 20.4929 18.8696 20.5163 18.9815 20.5163C19.1273 20.5163 19.2724 20.4767 19.3949 20.3989C19.6114 20.2612 19.7198 20.0279 19.6746 19.7971L18.4036 13.3133L23.7876 8.72137C23.9793 8.55792 24.0483 8.31343 23.9655 8.09075Z" fill="#FED42D"/>
<path d="M23.9655 8.09075C23.8828 7.86796 23.6628 7.70566 23.398 7.67203L15.9579 6.72596L12.6305 0.826818C12.5121 0.616777 12.2677 0.483887 12 0.483887V17.3844L18.6544 20.4457C18.7573 20.493 18.8696 20.5163 18.9816 20.5163C19.1273 20.5163 19.2725 20.4767 19.3949 20.3989C19.6114 20.2612 19.7199 20.0279 19.6746 19.7971L18.4035 13.3133L23.7876 8.72137C23.9793 8.55792 24.0483 8.31343 23.9655 8.09075Z" fill="#FCBF29"/>
</g>
<g clip-path="url(#clip1)">
<path d="M55.9655 8.09075C55.8829 7.86796 55.6628 7.70566 55.398 7.67202L47.9579 6.72596L44.6305 0.826818C44.5121 0.616777 44.2677 0.483887 44 0.483887C43.7324 0.483887 43.488 0.616777 43.3695 0.826818L40.0419 6.72592L32.602 7.67202C32.3372 7.70566 32.1171 7.86796 32.0344 8.09067C31.9517 8.31347 32.0207 8.55796 32.2123 8.72137L37.5958 13.3133L36.3251 19.7971C36.2799 20.028 36.3884 20.2612 36.6049 20.3989C36.8214 20.5365 37.1084 20.5547 37.3454 20.4457L44 17.3843L50.6544 20.4456C50.7573 20.4929 50.8696 20.5163 50.9815 20.5163C51.1273 20.5163 51.2724 20.4767 51.3949 20.3989C51.6114 20.2612 51.7198 20.0279 51.6746 19.7971L50.4036 13.3133L55.7876 8.72137C55.9793 8.55792 56.0483 8.31343 55.9655 8.09075Z" fill="#FED42D"/>
<path d="M55.9655 8.09075C55.8828 7.86796 55.6628 7.70566 55.398 7.67203L47.9579 6.72596L44.6305 0.826818C44.5121 0.616777 44.2677 0.483887 44 0.483887V17.3844L50.6544 20.4457C50.7573 20.493 50.8696 20.5163 50.9816 20.5163C51.1273 20.5163 51.2725 20.4767 51.3949 20.3989C51.6114 20.2612 51.7199 20.0279 51.6746 19.7971L50.4035 13.3133L55.7876 8.72137C55.9793 8.55792 56.0483 8.31343 55.9655 8.09075Z" fill="#FCBF29"/>
</g>
<g clip-path="url(#clip2)">
<path d="M87.9655 8.09075C87.8829 7.86796 87.6628 7.70566 87.398 7.67202L79.9579 6.72596L76.6305 0.826818C76.5121 0.616777 76.2677 0.483887 76 0.483887C75.7324 0.483887 75.488 0.616777 75.3695 0.826818L72.0419 6.72592L64.602 7.67202C64.3372 7.70566 64.1171 7.86796 64.0344 8.09067C63.9517 8.31347 64.0207 8.55796 64.2123 8.72137L69.5958 13.3133L68.3251 19.7971C68.2799 20.028 68.3884 20.2612 68.6049 20.3989C68.8214 20.5365 69.1084 20.5547 69.3454 20.4457L76 17.3843L82.6544 20.4456C82.7573 20.4929 82.8696 20.5163 82.9815 20.5163C83.1273 20.5163 83.2724 20.4767 83.3949 20.3989C83.6114 20.2612 83.7198 20.0279 83.6746 19.7971L82.4036 13.3133L87.7876 8.72137C87.9793 8.55792 88.0483 8.31343 87.9655 8.09075Z" fill="#FED42D"/>
<path d="M87.9655 8.09075C87.8828 7.86796 87.6628 7.70566 87.398 7.67203L79.9579 6.72596L76.6305 0.826818C76.5121 0.616777 76.2677 0.483887 76 0.483887V17.3844L82.6544 20.4457C82.7573 20.493 82.8696 20.5163 82.9816 20.5163C83.1273 20.5163 83.2725 20.4767 83.3949 20.3989C83.6114 20.2612 83.7199 20.0279 83.6746 19.7971L82.4035 13.3133L87.7876 8.72137C87.9793 8.55792 88.0483 8.31343 87.9655 8.09075Z" fill="#808080"/>
</g>
<g clip-path="url(#clip3)">
<path d="M119.966 8.09075C119.883 7.86796 119.663 7.70566 119.398 7.67202L111.958 6.72596L108.631 0.826818C108.512 0.616777 108.268 0.483887 108 0.483887C107.732 0.483887 107.488 0.616777 107.37 0.826818L104.042 6.72592L96.602 7.67202C96.3372 7.70566 96.1171 7.86796 96.0344 8.09067C95.9517 8.31347 96.0207 8.55796 96.2123 8.72137L101.596 13.3133L100.325 19.7971C100.28 20.028 100.388 20.2612 100.605 20.3989C100.821 20.5365 101.108 20.5547 101.345 20.4457L108 17.3843L114.654 20.4456C114.757 20.4929 114.87 20.5163 114.982 20.5163C115.127 20.5163 115.272 20.4767 115.395 20.3989C115.611 20.2612 115.72 20.0279 115.675 19.7971L114.404 13.3133L119.788 8.72137C119.979 8.55792 120.048 8.31343 119.966 8.09075Z" fill="#808080"/>
<path d="M119.966 8.09075C119.883 7.86796 119.663 7.70566 119.398 7.67203L111.958 6.72596L108.631 0.826818C108.512 0.616777 108.268 0.483887 108 0.483887V17.3844L114.654 20.4457C114.757 20.493 114.87 20.5163 114.982 20.5163C115.127 20.5163 115.272 20.4767 115.395 20.3989C115.611 20.2612 115.72 20.0279 115.675 19.7971L114.404 13.3133L119.788 8.72137C119.979 8.55792 120.048 8.31343 119.966 8.09075Z" fill="#808080"/>
</g>
<g clip-path="url(#clip4)">
<path d="M151.966 8.09075C151.883 7.86796 151.663 7.70566 151.398 7.67202L143.958 6.72596L140.631 0.826818C140.512 0.616777 140.268 0.483887 140 0.483887C139.732 0.483887 139.488 0.616777 139.37 0.826818L136.042 6.72592L128.602 7.67202C128.337 7.70566 128.117 7.86796 128.034 8.09067C127.952 8.31347 128.021 8.55796 128.212 8.72137L133.596 13.3133L132.325 19.7971C132.28 20.028 132.388 20.2612 132.605 20.3989C132.821 20.5365 133.108 20.5547 133.345 20.4457L140 17.3843L146.654 20.4456C146.757 20.4929 146.87 20.5163 146.982 20.5163C147.127 20.5163 147.272 20.4767 147.395 20.3989C147.611 20.2612 147.72 20.0279 147.675 19.7971L146.404 13.3133L151.788 8.72137C151.979 8.55792 152.048 8.31343 151.966 8.09075Z" fill="#808080"/>
<path d="M151.966 8.09075C151.883 7.86796 151.663 7.70566 151.398 7.67203L143.958 6.72596L140.631 0.826818C140.512 0.616777 140.268 0.483887 140 0.483887V17.3844L146.654 20.4457C146.757 20.493 146.87 20.5163 146.982 20.5163C147.127 20.5163 147.272 20.4767 147.395 20.3989C147.611 20.2612 147.72 20.0279 147.675 19.7971L146.404 13.3133L151.788 8.72137C151.979 8.55792 152.048 8.31343 151.966 8.09075Z" fill="#808080"/>
</g>
<defs>
<clipPath id="clip0">
<rect width="24" height="21" fill="white"/>
</clipPath>
<clipPath id="clip1">
<rect width="24" height="21" fill="white" transform="translate(32)"/>
</clipPath>
<clipPath id="clip2">
<rect width="24" height="21" fill="white" transform="translate(64)"/>
</clipPath>
<clipPath id="clip3">
<rect width="24" height="21" fill="white" transform="translate(96)"/>
</clipPath>
<clipPath id="clip4">
<rect width="24" height="21" fill="white" transform="translate(128)"/>
</clipPath>
</defs>
</svg>
